<svg width="267" height="49" viewBox="0 0 267 49" fill="none" xmlns="http://www.w3.org/2000/svg">
<g filter="url(#filter0_d)">
<path d="M6.6 8.38C6.52 9.22 6.4 10.38 6.24 11.86C6.08 13.3 5.88 15.3 5.64 17.86C5.44 20.42 5.18 23.64 4.86 27.52C4.54 31.4 4.2 36.22 3.84 41.98C3.76 42.1 3.56 42.22 3.24 42.34C2.92 42.46 2.56 42.54 2.16 42.58C1.8 42.62 1.46 42.6 1.14 42.52C0.82 42.44 0.64 42.28 0.6 42.04C0.52 41.56 0.54 40.8 0.66 39.76C0.82 38.68 0.94 37.58 1.02 36.46C1.06 36.18 1.12 35.54 1.2 34.54C1.32 33.5 1.46 32.24 1.62 30.76C1.78 29.28 1.96 27.62 2.16 25.78C2.4 23.94 2.62 22.08 2.82 20.2C3.06 18.32 3.28 16.48 3.48 14.68C3.68 12.84 3.86 11.2 4.02 9.76C4.18 8.28 4.32 7.06 4.44 6.1C4.56 5.14 4.64 4.56 4.68 4.36C4.72 3.88 4.94 3.54 5.34 3.34C5.78 3.14 6.24 3.06 6.72 3.1C7.24 3.1 7.72 3.2 8.16 3.4C8.6 3.56 8.88 3.78 9 4.06C9.24 4.66 9.52 5.56 9.84 6.76C10.2 7.96 10.6 9.32 11.04 10.84C11.48 12.32 11.92 13.88 12.36 15.52C12.8 17.16 13.22 18.72 13.62 20.2C14.06 21.64 14.44 22.92 14.76 24.04C15.08 25.16 15.32 25.96 15.48 26.44C15.6 26.8 15.7 27.02 15.78 27.1C15.9 27.14 15.98 27.12 16.02 27.04C16.1 26.96 16.16 26.86 16.2 26.74C16.24 26.58 16.26 26.5 16.26 26.5C16.42 26.06 16.66 25.3 16.98 24.22C17.34 23.1 17.74 21.84 18.18 20.44C18.62 19 19.06 17.48 19.5 15.88C19.98 14.24 20.44 12.68 20.88 11.2C21.32 9.68 21.72 8.32 22.08 7.12C22.44 5.92 22.72 5 22.92 4.36C23.12 3.72 23.46 3.28 23.94 3.04C24.42 2.76 24.92 2.66 25.44 2.74C25.96 2.82 26.42 3.04 26.82 3.4C27.22 3.72 27.46 4.12 27.54 4.6C27.54 4.76 27.6 5.52 27.72 6.88C27.84 8.24 27.96 9.94 28.08 11.98C28.2 13.98 28.34 16.16 28.5 18.52C28.66 20.88 28.82 23.14 28.98 25.3C29.14 27.42 29.26 29.3 29.34 30.94C29.42 32.58 29.48 33.68 29.52 34.24C29.56 35.92 29.64 37.32 29.76 38.44C29.88 39.56 29.96 40.38 30 40.9C30 41.14 29.84 41.42 29.52 41.74C29.24 42.02 28.92 42.22 28.56 42.34C28.2 42.42 27.86 42.34 27.54 42.1C27.26 41.86 27.14 41.34 27.18 40.54L25.32 8.26C25.24 8.18 25.12 8.06 24.96 7.9C24.8 7.74 24.66 7.9 24.54 8.38C24.34 9.1 24.02 10.16 23.58 11.56C23.18 12.92 22.72 14.44 22.2 16.12C21.72 17.8 21.2 19.52 20.64 21.28C20.12 23.04 19.62 24.66 19.14 26.14C18.66 27.62 18.22 28.86 17.82 29.86C17.42 30.82 17.14 31.34 16.98 31.42C16.62 31.62 16.14 31.7 15.54 31.66C14.98 31.62 14.58 31.44 14.34 31.12C14.26 31 14.06 30.44 13.74 29.44C13.42 28.44 13.02 27.18 12.54 25.66C12.1 24.14 11.62 22.5 11.1 20.74C10.58 18.94 10.06 17.22 9.54 15.58C9.06 13.9 8.62 12.4 8.22 11.08C7.82 9.76 7.5 8.82 7.26 8.26C7.18 8.18 7.06 8.1 6.9 8.02C6.78 7.9 6.68 8.02 6.6 8.38ZM33.4767 8.32C33.3967 8.4 33.3367 9.14 33.2967 10.54C33.2967 11.9 33.2967 13.6 33.2967 15.64C33.2967 17.64 33.2967 19.82 33.2967 22.18C33.3367 24.54 33.3567 26.76 33.3567 28.84C33.3967 30.92 33.4167 32.68 33.4167 34.12C33.4567 35.56 33.4767 36.38 33.4767 36.58C33.4767 36.9 33.4567 37.32 33.4167 37.84C33.3767 38.32 33.3367 38.86 33.2967 39.46C33.2967 40.02 33.2967 40.58 33.2967 41.14C33.3367 41.66 33.3967 42.1 33.4767 42.46C33.6767 43.18 34.0367 43.46 34.5567 43.3C35.0767 43.18 35.4367 42.9 35.6367 42.46C35.6767 42.3 35.7367 41.58 35.8167 40.3C35.8967 38.98 35.9567 37.36 35.9967 35.44C36.0767 33.48 36.1367 31.38 36.1767 29.14C36.2567 26.9 36.3167 24.76 36.3567 22.72C36.4367 20.68 36.4967 18.9 36.5367 17.38C36.5767 15.86 36.6167 14.86 36.6567 14.38C36.6967 13.66 36.7567 12.98 36.8367 12.34C36.9167 11.7 36.9567 11.12 36.9567 10.6C36.9967 10.04 36.9967 9.58 36.9567 9.22C36.9167 8.82 36.8167 8.52 36.6567 8.32C36.4567 8.16 36.1967 8.04 35.8767 7.96C35.5567 7.88 35.2367 7.84 34.9167 7.84C34.5967 7.84 34.2967 7.9 34.0167 8.02C33.7367 8.1 33.5567 8.2 33.4767 8.32ZM33.4167 3.4C33.4567 3.16 33.6767 2.98 34.0767 2.86C34.4767 2.7 34.8967 2.62 35.3367 2.62C35.7767 2.58 36.1767 2.64 36.5367 2.8C36.9367 2.92 37.1367 3.12 37.1367 3.4C37.1367 3.68 37.1367 3.9 37.1367 4.06C37.1367 4.22 37.1167 4.36 37.0767 4.48C37.0767 4.6 37.0567 4.74 37.0167 4.9C36.9767 5.06 36.9367 5.26 36.8967 5.5C36.8167 5.74 36.5967 5.92 36.2367 6.04C35.8767 6.16 35.4767 6.22 35.0367 6.22C34.6367 6.22 34.2567 6.18 33.8967 6.1C33.5767 6.02 33.4167 5.88 33.4167 5.68C33.4167 5.32 33.3967 4.98 33.3567 4.66C33.3167 4.34 33.3367 3.92 33.4167 3.4ZM43.9936 42.52C42.7936 42.28 42.0136 41.8 41.6536 41.08C41.3336 40.36 41.2336 39.58 41.3536 38.74C41.4736 37.9 41.6936 37.08 42.0136 36.28C42.3336 35.44 42.5336 34.82 42.6136 34.42C41.8936 33.78 41.4936 33.18 41.4136 32.62C41.3736 32.02 41.4336 31.5 41.5936 31.06C41.7936 30.58 42.0136 30.2 42.2536 29.92C42.5336 29.64 42.6336 29.46 42.5536 29.38C41.8336 28.62 41.2336 27.56 40.7536 26.2C40.3136 24.84 39.9736 23.34 39.7336 21.7C39.5336 20.06 39.4336 18.36 39.4336 16.6C39.4336 14.84 39.5336 13.18 39.7336 11.62C39.9736 10.06 40.2936 8.7 40.6936 7.54C41.1336 6.38 41.6536 5.56 42.2536 5.08C43.0936 4.4 44.2136 3.84 45.6136 3.4C47.0536 2.96 48.5536 2.7 50.1136 2.62C51.7136 2.5 53.2536 2.62 54.7336 2.98C56.2536 3.3 57.4936 3.92 58.4536 4.84C58.5736 4.96 58.7336 4.92 58.9336 4.72C59.1736 4.52 59.3936 4.28 59.5936 4C59.8336 3.72 60.0336 3.46 60.1936 3.22C60.3936 2.94 60.5336 2.8 60.6136 2.8C60.7336 2.8 60.9136 2.88 61.1536 3.04C61.4336 3.2 61.7136 3.4 61.9936 3.64C62.2736 3.88 62.5136 4.14 62.7136 4.42C62.9536 4.7 63.0736 4.92 63.0736 5.08C63.0736 5.2 62.9336 5.36 62.6536 5.56C62.3736 5.76 62.0736 5.96 61.7536 6.16C61.4336 6.36 61.1136 6.56 60.7936 6.76C60.5136 6.96 60.3536 7.14 60.3136 7.3C60.2736 7.38 60.2936 7.82 60.3736 8.62C60.4536 9.42 60.5536 10.44 60.6736 11.68C60.7936 12.88 60.8936 14.22 60.9736 15.7C61.0536 17.18 61.0736 18.66 61.0336 20.14C60.9936 21.62 60.8336 23.02 60.5536 24.34C60.3136 25.62 59.9136 26.68 59.3536 27.52C58.6336 28.56 57.6936 29.36 56.5336 29.92C55.3736 30.44 54.1536 30.8 52.8736 31C51.5936 31.2 50.3536 31.3 49.1536 31.3C47.9536 31.26 46.9536 31.2 46.1536 31.12C45.5536 31.84 45.3936 32.34 45.6736 32.62C45.9536 32.86 46.4936 32.98 47.2936 32.98C48.1336 32.98 49.1136 32.92 50.2336 32.8C51.3936 32.64 52.5336 32.54 53.6536 32.5C54.7736 32.46 55.7936 32.52 56.7136 32.68C57.6336 32.8 58.2736 33.14 58.6336 33.7C58.9136 34.18 59.1336 34.82 59.2936 35.62C59.4536 36.42 59.5136 37.24 59.4736 38.08C59.4736 38.92 59.3536 39.68 59.1136 40.36C58.9136 41.04 58.5536 41.48 58.0336 41.68C57.1136 42.04 55.9936 42.32 54.6736 42.52C53.3536 42.68 51.9936 42.78 50.5936 42.82C49.2336 42.86 47.9536 42.86 46.7536 42.82C45.5536 42.74 44.6336 42.64 43.9936 42.52ZM44.6536 7.42C44.0936 8.1 43.6336 9 43.2736 10.12C42.9536 11.24 42.7136 12.46 42.5536 13.78C42.3936 15.1 42.3336 16.46 42.3736 17.86C42.4136 19.26 42.5336 20.58 42.7336 21.82C42.9336 23.02 43.1936 24.1 43.5136 25.06C43.8736 26.02 44.3136 26.7 44.8336 27.1C45.5136 27.66 46.4136 28.04 47.5336 28.24C48.6536 28.4 49.8136 28.4 51.0136 28.24C52.2536 28.04 53.4136 27.68 54.4936 27.16C55.6136 26.64 56.5136 25.96 57.1936 25.12C57.3936 24.84 57.5736 24.26 57.7336 23.38C57.9336 22.5 58.0736 21.46 58.1536 20.26C58.2336 19.06 58.2536 17.78 58.2136 16.42C58.2136 15.02 58.1336 13.7 57.9736 12.46C57.8536 11.22 57.6336 10.12 57.3136 9.16C57.0336 8.16 56.6736 7.46 56.2336 7.06C55.5536 6.46 54.6536 6.04 53.5336 5.8C52.4136 5.52 51.2736 5.42 50.1136 5.5C48.9536 5.54 47.8736 5.72 46.8736 6.04C45.8736 6.36 45.1336 6.82 44.6536 7.42ZM45.3136 36.28C44.7136 36.8 44.3536 37.46 44.2336 38.26C44.1536 39.02 44.3936 39.5 44.9536 39.7C45.4336 39.86 46.1936 39.96 47.2336 40C48.2736 40.04 49.3536 40.04 50.4736 40C51.6336 39.92 52.6936 39.82 53.6536 39.7C54.6536 39.54 55.3336 39.36 55.6936 39.16C56.0536 38.92 56.3136 38.64 56.4736 38.32C56.6336 37.96 56.7136 37.6 56.7136 37.24C56.7536 36.88 56.7136 36.58 56.5936 36.34C56.4736 36.06 56.2936 35.88 56.0536 35.8C55.7336 35.72 55.0536 35.64 54.0136 35.56C52.9736 35.48 51.8536 35.46 50.6536 35.5C49.4936 35.5 48.3936 35.56 47.3536 35.68C46.3136 35.8 45.6336 36 45.3136 36.28ZM64.1686 2.62C64.2086 2.14 64.3886 1.82 64.7086 1.66C65.0286 1.46 65.3886 1.38 65.7886 1.42C66.1886 1.46 66.5486 1.6 66.8686 1.84C67.1886 2.04 67.3486 2.3 67.3486 2.62C67.3486 2.86 67.3286 3.32 67.2886 4C67.2886 4.68 67.2686 5.48 67.2286 6.4C67.1886 7.28 67.1486 8.22 67.1086 9.22C67.1086 10.18 67.1086 11.08 67.1086 11.92C67.1486 12.72 67.1886 13.4 67.2286 13.96C67.2686 14.48 67.3486 14.74 67.4686 14.74C67.6286 14.74 68.1886 14.66 69.1486 14.5C70.1486 14.34 71.2886 14.26 72.5686 14.26C73.8886 14.26 75.2286 14.44 76.5886 14.8C77.9886 15.12 79.1686 15.78 80.1286 16.78C80.6886 17.38 81.1086 18.36 81.3886 19.72C81.6686 21.08 81.8486 22.64 81.9286 24.4C82.0486 26.16 82.0886 27.98 82.0486 29.86C82.0086 31.74 81.9286 33.5 81.8086 35.14C81.7286 36.78 81.6286 38.18 81.5086 39.34C81.3886 40.46 81.3286 41.12 81.3286 41.32C81.2886 41.64 81.0886 41.9 80.7286 42.1C80.4086 42.26 80.0486 42.34 79.6486 42.34C79.2886 42.3 78.9486 42.18 78.6286 41.98C78.3486 41.78 78.2486 41.46 78.3286 41.02C78.3686 40.74 78.4486 40.08 78.5686 39.04C78.6886 37.96 78.8086 36.7 78.9286 35.26C79.0886 33.78 79.1886 32.2 79.2286 30.52C79.3086 28.84 79.3086 27.24 79.2286 25.72C79.1886 24.2 79.0486 22.84 78.8086 21.64C78.5686 20.4 78.1886 19.54 77.6686 19.06C76.9486 18.38 76.0286 17.92 74.9086 17.68C73.8286 17.4 72.7486 17.28 71.6686 17.32C70.6286 17.36 69.6886 17.52 68.8486 17.8C68.0486 18.08 67.5886 18.4 67.4686 18.76C67.3886 19 67.3286 19.68 67.2886 20.8C67.2486 21.92 67.2086 23.28 67.1686 24.88C67.1686 26.44 67.1686 28.12 67.1686 29.92C67.2086 31.72 67.2286 33.42 67.2286 35.02C67.2686 36.62 67.2886 38.02 67.2886 39.22C67.2886 40.38 67.2686 41.12 67.2286 41.44C67.1886 41.92 67.0086 42.34 66.6886 42.7C66.3686 43.06 66.0286 43.28 65.6686 43.36C65.3086 43.48 64.9686 43.42 64.6486 43.18C64.3686 42.98 64.2286 42.56 64.2286 41.92C64.2286 41.6 64.2086 40.82 64.1686 39.58C64.1686 38.34 64.1686 36.8 64.1686 34.96C64.1686 33.12 64.1686 31.08 64.1686 28.84C64.1686 26.6 64.1486 24.32 64.1086 22C64.1086 19.68 64.1086 17.42 64.1086 15.22C64.1086 12.98 64.1086 10.98 64.1086 9.22C64.1086 7.42 64.1086 5.94 64.1086 4.78C64.1486 3.58 64.1686 2.86 64.1686 2.62ZM90.0122 3.1C89.9722 2.7 90.1322 2.38 90.4922 2.14C90.8922 1.9 91.3122 1.76 91.7522 1.72C92.2322 1.68 92.6722 1.78 93.0722 2.02C93.4722 2.22 93.6722 2.58 93.6722 3.1C93.6722 3.46 93.6322 4.3 93.5522 5.62C93.5122 6.94 93.4322 8.5 93.3122 10.3C93.2322 12.06 93.1522 13.94 93.0722 15.94C92.9922 17.94 92.9122 19.8 92.8322 21.52C92.7922 23.2 92.7722 24.62 92.7722 25.78C92.7722 26.9 92.8122 27.48 92.8922 27.52C93.0122 27.6 93.2322 27.66 93.5522 27.7C93.9122 27.7 94.3122 27.7 94.7522 27.7C95.1922 27.66 95.6522 27.62 96.1322 27.58C96.6122 27.54 97.0722 27.5 97.5122 27.46C97.9122 27.42 98.2122 27.56 98.4122 27.88C98.6122 28.2 98.7122 28.56 98.7122 28.96C98.7522 29.36 98.7122 29.74 98.5922 30.1C98.4722 30.46 98.3122 30.64 98.1122 30.64C97.8722 30.64 97.4722 30.64 96.9122 30.64C96.3922 30.6 95.8522 30.58 95.2922 30.58C94.7322 30.58 94.2122 30.62 93.7322 30.7C93.2922 30.78 93.0322 30.94 92.9522 31.18C92.8722 31.34 92.8122 31.76 92.7722 32.44C92.7322 33.12 92.7122 33.88 92.7122 34.72C92.7522 35.52 92.8122 36.3 92.8922 37.06C93.0122 37.82 93.1722 38.34 93.3722 38.62C93.8122 39.22 94.3722 39.56 95.0522 39.64C95.7722 39.68 96.4722 39.68 97.1522 39.64C97.5122 39.64 97.7722 39.8 97.9322 40.12C98.0922 40.44 98.1722 40.8 98.1722 41.2C98.1722 41.6 98.0522 41.98 97.8122 42.34C97.6122 42.7 97.3122 42.88 96.9122 42.88C96.4722 42.88 95.9722 42.88 95.4122 42.88C94.8522 42.88 94.2722 42.82 93.6722 42.7C93.1122 42.54 92.5522 42.26 91.9922 41.86C91.4722 41.46 91.0322 40.88 90.6722 40.12C90.3122 39.36 90.0922 38.48 90.0122 37.48C89.9322 36.48 89.8922 35.52 89.8922 34.6C89.9322 33.68 89.9722 32.88 90.0122 32.2C90.0522 31.52 90.0122 31.12 89.8922 31C89.7722 30.88 89.5522 30.8 89.2322 30.76C88.9122 30.68 88.5322 30.64 88.0922 30.64C87.6922 30.64 87.2722 30.66 86.8322 30.7C86.3922 30.7 85.9722 30.7 85.5722 30.7C85.1722 30.7 84.8922 30.58 84.7322 30.34C84.5722 30.06 84.4922 29.76 84.4922 29.44C84.4922 29.12 84.5722 28.82 84.7322 28.54C84.8922 28.22 85.1122 28.02 85.3922 27.94C85.6722 27.86 86.0322 27.84 86.4722 27.88C86.9122 27.88 87.3522 27.88 87.7922 27.88C88.2322 27.88 88.6122 27.86 88.9322 27.82C89.2922 27.78 89.5122 27.64 89.5922 27.4C89.6322 27.24 89.6722 26.58 89.7122 25.42C89.7922 24.22 89.8322 22.76 89.8322 21.04C89.8722 19.32 89.9122 17.48 89.9522 15.52C89.9922 13.52 90.0122 11.64 90.0122 9.88C90.0522 8.12 90.0522 6.62 90.0122 5.38C90.0122 4.14 90.0122 3.38 90.0122 3.1ZM97.5 4.6C97.34 4.12 97.36 3.68 97.56 3.28C97.8 2.88 98.1 2.58 98.46 2.38C98.86 2.18 99.26 2.12 99.66 2.2C100.1 2.24 100.42 2.48 100.62 2.92C100.74 3.24 101 4.06 101.4 5.38C101.84 6.66 102.32 8.2 102.84 10C103.4 11.8 103.96 13.7 104.52 15.7C105.12 17.7 105.66 19.54 106.14 21.22C106.66 22.9 107.08 24.3 107.4 25.42C107.72 26.5 107.88 27.04 107.88 27.04C107.88 27.04 108.04 26.5 108.36 25.42C108.72 24.34 109.16 22.98 109.68 21.34C110.2 19.7 110.76 17.9 111.36 15.94C112 13.94 112.6 12.04 113.16 10.24C113.76 8.44 114.26 6.84 114.66 5.44C115.1 4.04 115.4 3.1 115.56 2.62C115.76 1.9 116.06 1.42 116.46 1.18C116.86 0.939999 117.22 0.919999 117.54 1.12C117.9 1.28 118.18 1.62 118.38 2.14C118.62 2.62 118.66 3.22 118.5 3.94C118.38 4.42 118.06 5.4 117.54 6.88C117.06 8.36 116.48 10.1 115.8 12.1C115.12 14.06 114.38 16.12 113.58 18.28C112.78 20.44 112.06 22.44 111.42 24.28C110.78 26.12 110.24 27.66 109.8 28.9C109.36 30.14 109.16 30.82 109.2 30.94C109.24 31.1 109.26 31.68 109.26 32.68C109.3 33.64 109.34 34.7 109.38 35.86C109.42 37.02 109.44 38.14 109.44 39.22C109.48 40.26 109.5 40.96 109.5 41.32C109.5 41.68 109.34 42 109.02 42.28C108.74 42.52 108.42 42.68 108.06 42.76C107.7 42.8 107.36 42.72 107.04 42.52C106.72 42.28 106.54 41.84 106.5 41.2C106.46 40.56 106.44 39.72 106.44 38.68C106.44 37.6 106.44 36.54 106.44 35.5C106.44 34.46 106.44 33.54 106.44 32.74C106.48 31.9 106.5 31.42 106.5 31.3C106.5 31.22 106.28 30.56 105.84 29.32C105.44 28.04 104.92 26.46 104.28 24.58C103.68 22.7 103 20.66 102.24 18.46C101.48 16.26 100.76 14.2 100.08 12.28C99.44 10.32 98.88 8.64 98.4 7.24C97.92 5.8 97.62 4.92 97.5 4.6ZM145.153 2.44C145.393 2.44 145.633 2.48 145.873 2.56C146.153 2.6 146.393 2.72 146.593 2.92C146.833 3.12 147.033 3.42 147.193 3.82C147.353 4.22 147.433 4.78 147.433 5.5C147.433 5.86 147.533 6.6 147.733 7.72C147.933 8.84 148.193 10.2 148.513 11.8C148.833 13.36 149.193 15.1 149.593 17.02C150.033 18.94 150.473 20.88 150.913 22.84C151.353 24.8 151.793 26.72 152.233 28.6C152.673 30.44 153.053 32.1 153.373 33.58C153.733 35.02 154.013 36.22 154.213 37.18C154.413 38.1 154.533 38.62 154.573 38.74C154.613 38.98 154.653 39.24 154.693 39.52C154.773 39.76 154.793 40.02 154.753 40.3C154.713 40.54 154.633 40.78 154.513 41.02C154.393 41.26 154.173 41.44 153.853 41.56C153.533 41.68 153.233 41.7 152.953 41.62C152.673 41.5 152.413 41.32 152.173 41.08C151.933 40.84 151.713 40.56 151.513 40.24C151.353 39.92 151.233 39.6 151.153 39.28C151.113 39.16 151.053 38.86 150.973 38.38C150.893 37.86 150.793 37.24 150.673 36.52C150.553 35.76 150.413 34.9 150.253 33.94C150.093 32.98 149.933 32 149.773 31C149.773 30.96 149.593 30.94 149.233 30.94C148.873 30.94 148.413 30.96 147.853 31C147.293 31 146.653 31.04 145.933 31.12C145.213 31.2 144.493 31.26 143.773 31.3C142.253 31.42 140.873 31.54 139.633 31.66C138.433 31.78 137.813 31.94 137.773 32.14C137.293 34.06 136.933 35.48 136.693 36.4C136.453 37.28 136.313 37.76 136.273 37.84C136.153 38.2 135.973 38.7 135.733 39.34C135.533 39.94 135.273 40.52 134.953 41.08C134.633 41.64 134.253 42.1 133.813 42.46C133.413 42.82 132.973 42.94 132.493 42.82C132.173 42.74 131.973 42.52 131.893 42.16C131.813 41.76 131.833 41.26 131.953 40.66C132.033 40.06 132.173 39.4 132.373 38.68C132.613 37.96 132.893 37.22 133.213 36.46C133.373 36.1 133.733 35.1 134.293 33.46C134.853 31.82 135.513 29.88 136.273 27.64C137.033 25.4 137.833 23.02 138.673 20.5C139.513 17.98 140.293 15.64 141.013 13.48C141.773 11.28 142.393 9.42 142.873 7.9C143.353 6.38 143.633 5.52 143.713 5.32C143.913 4.68 144.093 4.04 144.253 3.4C144.413 2.76 144.713 2.44 145.153 2.44ZM138.913 28.36C138.833 28.48 138.933 28.58 139.213 28.66C139.493 28.7 139.873 28.72 140.353 28.72C140.833 28.68 141.393 28.64 142.033 28.6C142.673 28.56 143.333 28.5 144.013 28.42C145.413 28.3 146.633 28.2 147.673 28.12C148.713 28 149.193 27.86 149.113 27.7C148.753 25.66 148.373 23.66 147.973 21.7C147.613 19.7 147.253 17.92 146.893 16.36C146.533 14.8 146.193 13.54 145.873 12.58C145.553 11.58 145.293 11.08 145.093 11.08C144.853 11.08 144.493 11.62 144.013 12.7C143.573 13.78 143.053 15.16 142.453 16.84C141.893 18.48 141.293 20.32 140.653 22.36C140.053 24.4 139.473 26.4 138.913 28.36ZM157.078 40.9C157.398 40.46 157.878 39.66 158.518 38.5C159.158 37.34 159.798 36.12 160.438 34.84C161.078 33.56 161.638 32.4 162.118 31.36C162.598 30.28 162.858 29.64 162.898 29.44C162.898 29.32 162.658 28.64 162.178 27.4C161.738 26.12 161.158 24.58 160.438 22.78C159.718 20.98 158.918 19.04 158.038 16.96C157.198 14.84 156.398 12.86 155.638 11.02C154.878 9.18 154.218 7.6 153.658 6.28C153.098 4.96 152.758 4.18 152.638 3.94C152.438 3.58 152.418 3.18 152.578 2.74C152.778 2.26 153.038 1.9 153.358 1.66C153.718 1.38 154.098 1.26 154.498 1.3C154.898 1.34 155.238 1.66 155.518 2.26C155.718 2.66 156.058 3.52 156.538 4.84C157.058 6.16 157.618 7.7 158.218 9.46C158.858 11.22 159.538 13.08 160.258 15.04C160.978 16.96 161.618 18.74 162.178 20.38C162.778 21.98 163.278 23.32 163.678 24.4C164.118 25.48 164.378 26.02 164.458 26.02C164.578 26.06 164.878 25.56 165.358 24.52C165.838 23.48 166.418 22.16 167.098 20.56C167.778 18.96 168.498 17.22 169.258 15.34C170.058 13.42 170.818 11.6 171.538 9.88C172.258 8.12 172.878 6.6 173.398 5.32C173.958 4 174.358 3.16 174.598 2.8C174.918 2.24 175.298 1.92 175.738 1.84C176.178 1.76 176.558 1.84 176.878 2.08C177.238 2.32 177.478 2.68 177.598 3.16C177.718 3.6 177.638 4.08 177.358 4.6C177.158 4.96 176.758 5.8 176.158 7.12C175.598 8.44 174.918 10 174.118 11.8C173.358 13.56 172.518 15.44 171.598 17.44C170.718 19.44 169.898 21.3 169.138 23.02C168.378 24.7 167.718 26.12 167.158 27.28C166.598 28.44 166.238 29.06 166.078 29.14C165.998 29.22 166.098 29.68 166.378 30.52C166.698 31.36 167.098 32.36 167.578 33.52C168.058 34.64 168.538 35.78 169.018 36.94C169.538 38.1 169.938 39 170.218 39.64C170.498 40.32 170.578 40.94 170.458 41.5C170.378 42.06 170.198 42.5 169.918 42.82C169.678 43.1 169.358 43.22 168.958 43.18C168.598 43.14 168.298 42.86 168.058 42.34C167.818 41.82 167.498 41.04 167.098 40C166.738 38.96 166.358 37.92 165.958 36.88C165.598 35.84 165.258 34.94 164.938 34.18C164.658 33.38 164.458 32.98 164.338 32.98C164.218 32.98 164.038 33.2 163.798 33.64C163.598 34.04 163.338 34.58 163.018 35.26C162.738 35.94 162.438 36.7 162.118 37.54C161.798 38.38 161.478 39.18 161.158 39.94C160.878 40.66 160.598 41.32 160.318 41.92C160.078 42.48 159.898 42.84 159.778 43C159.578 43.28 159.258 43.4 158.818 43.36C158.418 43.36 158.038 43.24 157.678 43C157.318 42.8 157.038 42.52 156.838 42.16C156.678 41.76 156.758 41.34 157.078 40.9ZM180.082 4.78C181.122 3.98 182.262 3.42 183.502 3.1C184.742 2.74 186.002 2.6 187.282 2.68C188.562 2.76 189.822 3.06 191.062 3.58C192.302 4.1 193.442 4.8 194.482 5.68C195.482 6.52 196.202 7.86 196.642 9.7C197.122 11.5 197.382 13.54 197.422 15.82C197.502 18.06 197.382 20.42 197.062 22.9C196.782 25.38 196.402 27.74 195.922 29.98C195.442 32.18 194.882 34.12 194.242 35.8C193.642 37.48 193.042 38.64 192.442 39.28C191.722 40.08 190.862 40.78 189.862 41.38C188.902 41.94 187.862 42.32 186.742 42.52C185.662 42.72 184.542 42.7 183.382 42.46C182.262 42.22 181.162 41.66 180.082 40.78C179.482 40.26 178.962 39.4 178.522 38.2C178.082 37 177.722 35.58 177.442 33.94C177.162 32.26 176.962 30.44 176.842 28.48C176.722 26.52 176.662 24.54 176.662 22.54C176.702 20.5 176.802 18.5 176.962 16.54C177.122 14.58 177.342 12.8 177.622 11.2C177.942 9.6 178.302 8.24 178.702 7.12C179.102 5.96 179.562 5.18 180.082 4.78ZM182.182 7.12C181.582 7.76 181.082 8.94 180.682 10.66C180.282 12.34 179.982 14.28 179.782 16.48C179.622 18.68 179.542 21 179.542 23.44C179.542 25.88 179.642 28.16 179.842 30.28C180.042 32.36 180.322 34.16 180.682 35.68C181.042 37.2 181.502 38.14 182.062 38.5C183.462 39.42 184.922 39.8 186.442 39.64C188.002 39.48 189.342 38.58 190.462 36.94C190.822 36.42 191.242 35.46 191.722 34.06C192.202 32.66 192.642 31.02 193.042 29.14C193.482 27.26 193.842 25.26 194.122 23.14C194.402 20.98 194.522 18.9 194.482 16.9C194.442 14.9 194.182 13.08 193.702 11.44C193.262 9.76 192.502 8.48 191.422 7.6C190.702 7 189.922 6.54 189.082 6.22C188.242 5.9 187.382 5.72 186.502 5.68C185.662 5.6 184.862 5.68 184.102 5.92C183.342 6.16 182.702 6.56 182.182 7.12ZM200.306 4.06C200.386 3.94 200.566 3.78 200.846 3.58C201.126 3.38 201.426 3.24 201.746 3.16C202.106 3.08 202.426 3.1 202.706 3.22C203.026 3.34 203.226 3.62 203.306 4.06C203.346 4.3 203.346 4.96 203.306 6.04C203.266 7.12 203.206 8.48 203.126 10.12C203.086 11.76 203.006 13.6 202.886 15.64C202.766 17.64 202.646 19.68 202.526 21.76C202.446 23.84 202.346 25.88 202.226 27.88C202.146 29.88 202.086 31.68 202.046 33.28C202.006 34.88 202.006 36.2 202.046 37.24C202.086 38.24 202.166 38.8 202.286 38.92C202.446 39.12 202.806 39.22 203.366 39.22C203.966 39.22 204.646 39.2 205.406 39.16C206.206 39.08 207.026 39 207.866 38.92C208.746 38.8 209.546 38.72 210.266 38.68C211.026 38.6 211.646 38.6 212.126 38.68C212.606 38.72 212.866 38.86 212.906 39.1C212.986 39.82 213.026 40.4 213.026 40.84C213.026 41.24 212.806 41.44 212.366 41.44C212.206 41.44 211.806 41.48 211.166 41.56C210.526 41.64 209.746 41.74 208.826 41.86C207.946 41.98 206.986 42.1 205.946 42.22C204.946 42.34 203.986 42.44 203.066 42.52C202.186 42.56 201.426 42.58 200.786 42.58C200.186 42.58 199.846 42.5 199.766 42.34C199.686 42.22 199.626 41.6 199.586 40.48C199.586 39.32 199.586 37.86 199.586 36.1C199.586 34.3 199.586 32.28 199.586 30.04C199.626 27.76 199.666 25.44 199.706 23.08C199.746 20.72 199.786 18.42 199.826 16.18C199.866 13.94 199.906 11.94 199.946 10.18C200.026 8.38 200.086 6.94 200.126 5.86C200.206 4.74 200.266 4.14 200.306 4.06ZM218.46 4.78C219.5 3.98 220.64 3.42 221.88 3.1C223.12 2.74 224.38 2.6 225.66 2.68C226.94 2.76 228.2 3.06 229.44 3.58C230.68 4.1 231.82 4.8 232.86 5.68C233.86 6.52 234.58 7.86 235.02 9.7C235.5 11.5 235.76 13.54 235.8 15.82C235.88 18.06 235.76 20.42 235.44 22.9C235.16 25.38 234.78 27.74 234.3 29.98C233.82 32.18 233.26 34.12 232.62 35.8C232.02 37.48 231.42 38.64 230.82 39.28C230.1 40.08 229.24 40.78 228.24 41.38C227.28 41.94 226.24 42.32 225.12 42.52C224.04 42.72 222.92 42.7 221.76 42.46C220.64 42.22 219.54 41.66 218.46 40.78C217.86 40.26 217.34 39.4 216.9 38.2C216.46 37 216.1 35.58 215.82 33.94C215.54 32.26 215.34 30.44 215.22 28.48C215.1 26.52 215.04 24.54 215.04 22.54C215.08 20.5 215.18 18.5 215.34 16.54C215.5 14.58 215.72 12.8 216 11.2C216.32 9.6 216.68 8.24 217.08 7.12C217.48 5.96 217.94 5.18 218.46 4.78ZM220.56 7.12C219.96 7.76 219.46 8.94 219.06 10.66C218.66 12.34 218.36 14.28 218.16 16.48C218 18.68 217.92 21 217.92 23.44C217.92 25.88 218.02 28.16 218.22 30.28C218.42 32.36 218.7 34.16 219.06 35.68C219.42 37.2 219.88 38.14 220.44 38.5C221.84 39.42 223.3 39.8 224.82 39.64C226.38 39.48 227.72 38.58 228.84 36.94C229.2 36.42 229.62 35.46 230.1 34.06C230.58 32.66 231.02 31.02 231.42 29.14C231.86 27.26 232.22 25.26 232.5 23.14C232.78 20.98 232.9 18.9 232.86 16.9C232.82 14.9 232.56 13.08 232.08 11.44C231.64 9.76 230.88 8.48 229.8 7.6C229.08 7 228.3 6.54 227.46 6.22C226.62 5.9 225.76 5.72 224.88 5.68C224.04 5.6 223.24 5.68 222.48 5.92C221.72 6.16 221.08 6.56 220.56 7.12ZM240.598 3.1C240.558 2.7 240.718 2.38 241.078 2.14C241.478 1.9 241.898 1.76 242.338 1.72C242.818 1.68 243.258 1.78 243.658 2.02C244.058 2.22 244.258 2.58 244.258 3.1C244.258 3.46 244.218 4.3 244.138 5.62C244.098 6.94 244.018 8.5 243.898 10.3C243.818 12.06 243.738 13.94 243.658 15.94C243.578 17.94 243.498 19.8 243.418 21.52C243.378 23.2 243.358 24.62 243.358 25.78C243.358 26.9 243.398 27.48 243.478 27.52C243.598 27.6 243.818 27.66 244.138 27.7C244.498 27.7 244.898 27.7 245.338 27.7C245.778 27.66 246.238 27.62 246.718 27.58C247.198 27.54 247.658 27.5 248.098 27.46C248.498 27.42 248.798 27.56 248.998 27.88C249.198 28.2 249.298 28.56 249.298 28.96C249.338 29.36 249.298 29.74 249.178 30.1C249.058 30.46 248.898 30.64 248.698 30.64C248.458 30.64 248.058 30.64 247.498 30.64C246.978 30.6 246.438 30.58 245.878 30.58C245.318 30.58 244.798 30.62 244.318 30.7C243.878 30.78 243.618 30.94 243.538 31.18C243.458 31.34 243.398 31.76 243.358 32.44C243.318 33.12 243.298 33.88 243.298 34.72C243.338 35.52 243.398 36.3 243.478 37.06C243.598 37.82 243.758 38.34 243.958 38.62C244.398 39.22 244.958 39.56 245.638 39.64C246.358 39.68 247.058 39.68 247.738 39.64C248.098 39.64 248.358 39.8 248.518 40.12C248.678 40.44 248.758 40.8 248.758 41.2C248.758 41.6 248.638 41.98 248.398 42.34C248.198 42.7 247.898 42.88 247.498 42.88C247.058 42.88 246.558 42.88 245.998 42.88C245.438 42.88 244.858 42.82 244.258 42.7C243.698 42.54 243.138 42.26 242.578 41.86C242.058 41.46 241.618 40.88 241.258 40.12C240.898 39.36 240.678 38.48 240.598 37.48C240.518 36.48 240.478 35.52 240.478 34.6C240.518 33.68 240.558 32.88 240.598 32.2C240.638 31.52 240.598 31.12 240.478 31C240.358 30.88 240.138 30.8 239.818 30.76C239.498 30.68 239.118 30.64 238.678 30.64C238.278 30.64 237.858 30.66 237.418 30.7C236.978 30.7 236.558 30.7 236.158 30.7C235.758 30.7 235.478 30.58 235.318 30.34C235.158 30.06 235.078 29.76 235.078 29.44C235.078 29.12 235.158 28.82 235.318 28.54C235.478 28.22 235.698 28.02 235.978 27.94C236.258 27.86 236.618 27.84 237.058 27.88C237.498 27.88 237.938 27.88 238.378 27.88C238.818 27.88 239.198 27.86 239.518 27.82C239.878 27.78 240.098 27.64 240.178 27.4C240.218 27.24 240.258 26.58 240.298 25.42C240.378 24.22 240.418 22.76 240.418 21.04C240.458 19.32 240.498 17.48 240.538 15.52C240.578 13.52 240.598 11.64 240.598 9.88C240.638 8.12 240.638 6.62 240.598 5.38C240.598 4.14 240.598 3.38 240.598 3.1ZM252.044 4.06C252.124 3.94 252.304 3.78 252.584 3.58C252.864 3.38 253.164 3.24 253.484 3.16C253.844 3.08 254.164 3.1 254.444 3.22C254.764 3.34 254.964 3.62 255.044 4.06C255.084 4.3 255.084 4.96 255.044 6.04C255.004 7.12 254.944 8.48 254.864 10.12C254.824 11.76 254.744 13.6 254.624 15.64C254.504 17.64 254.384 19.68 254.264 21.76C254.184 23.84 254.084 25.88 253.964 27.88C253.884 29.88 253.824 31.68 253.784 33.28C253.744 34.88 253.744 36.2 253.784 37.24C253.824 38.24 253.904 38.8 254.024 38.92C254.184 39.12 254.544 39.22 255.104 39.22C255.704 39.22 256.384 39.2 257.144 39.16C257.944 39.08 258.764 39 259.604 38.92C260.484 38.8 261.284 38.72 262.004 38.68C262.764 38.6 263.384 38.6 263.864 38.68C264.344 38.72 264.604 38.86 264.644 39.1C264.724 39.82 264.764 40.4 264.764 40.84C264.764 41.24 264.544 41.44 264.104 41.44C263.944 41.44 263.544 41.48 262.904 41.56C262.264 41.64 261.484 41.74 260.564 41.86C259.684 41.98 258.724 42.1 257.684 42.22C256.684 42.34 255.724 42.44 254.804 42.52C253.924 42.56 253.164 42.58 252.524 42.58C251.924 42.58 251.584 42.5 251.504 42.34C251.424 42.22 251.364 41.6 251.324 40.48C251.324 39.32 251.324 37.86 251.324 36.1C251.324 34.3 251.324 32.28 251.324 30.04C251.364 27.76 251.404 25.44 251.444 23.08C251.484 20.72 251.524 18.42 251.564 16.18C251.604 13.94 251.644 11.94 251.684 10.18C251.764 8.38 251.824 6.94 251.864 5.86C251.944 4.74 252.004 4.14 252.044 4.06Z" fill="url(#paint0_linear)"/>
</g>
<defs>
<filter id="filter0_d" x="0.552002" y="0.983398" width="266.212" height="47.4364" filterUnits="userSpaceOnUse" color-interpolation-filters="sRGB">
<feFlood flood-opacity="0" result="BackgroundImageFix"/>
<feColorMatrix in="SourceAlpha" type="matrix" values="0 0 0 0 0 0 0 0 0 0 0 0 0 0 0 0 0 0 127 0" result="hardAlpha"/>
<feOffset dx="1" dy="4"/>
<feGaussianBlur stdDeviation="0.5"/>
<feComposite in2="hardAlpha" operator="out"/>
<feColorMatrix type="matrix" values="0 0 0 0 0 0 0 0 0 0 0 0 0 0 0 0 0 0 0.25 0"/>
<feBlend mode="normal" in2="BackgroundImageFix" result="effect1_dropShadow"/>
<feBlend mode="normal" in="SourceGraphic" in2="effect1_dropShadow" result="shape"/>
</filter>
<linearGradient id="paint0_linear" x1="-2.19221e-08" y1="16.5821" x2="266.975" y2="12.6338" gradientUnits="userSpaceOnUse">
<stop stop-color="#E7A99F"/>
<stop offset="0.609375" stop-color="#CED7C0"/>
<stop offset="1" stop-color="#799561"/>
</linearGradient>
</defs>
</svg>
