<svg width="411" height="133" viewBox="0 0 411 133" fill="none" xmlns="http://www.w3.org/2000/svg">
<g filter="url(#filter0_di)">
<path d="M0.712 54.128C0.712 52.88 0.76 51.68 0.856 50.528C0.856 49.28 0.904 48.032 1 46.784C1 45.152 1.432 44.096 2.296 43.616C3.256 43.04 4.408 42.752 5.752 42.752C6.424 42.752 7.048 42.8 7.624 42.896C8.296 42.992 8.776 43.376 9.064 44.048C9.256 44.624 9.352 45.056 9.352 45.344C9.352 46.112 9.64 46.784 10.216 47.36C11.368 48.416 12.76 50.432 14.392 53.408C16.024 56.288 17.608 59.456 19.144 62.912C20.776 66.272 22.216 69.536 23.464 72.704C24.712 75.776 25.624 78.08 26.2 79.616L27.064 81.776C27.16 81.968 27.208 82.064 27.208 82.064C27.496 82.064 27.688 82.016 27.784 81.92C27.976 81.728 28.168 81.344 28.36 80.768C30.856 74.816 33.496 69.008 36.28 63.344C39.064 57.68 41.992 52.016 45.064 46.352C45.928 44.72 46.792 43.136 47.656 41.6C48.616 40.064 49.672 38.624 50.824 37.28L51.688 35.984C52.552 34.928 53.608 34.4 54.856 34.4H56.152C58.072 34.496 59.176 35.504 59.464 37.424C59.56 37.904 59.608 38.336 59.608 38.72C59.608 39.104 59.608 39.536 59.608 40.016C59.608 45.104 59.56 50.144 59.464 55.136C59.368 60.128 59.128 65.168 58.744 70.256C58.552 72.656 58.36 75.056 58.168 77.456C58.072 79.76 57.928 82.112 57.736 84.512V87.536L56.44 104.384C56.344 105.152 56.296 105.872 56.296 106.544C56.296 107.216 56.248 107.936 56.152 108.704C56.152 109.472 56.104 110.048 56.008 110.432C55.816 111.296 55.336 111.824 54.568 112.016C53.8 112.208 53.032 112.304 52.264 112.304C51.112 112.304 50.344 112.112 49.96 111.728C49.672 111.344 49.528 110.672 49.528 109.712V89.84L49.24 89.696C49.432 86.432 49.576 83.216 49.672 80.048C49.768 76.784 49.912 73.52 50.104 70.256C50.296 67.184 50.536 64.112 50.824 61.04C51.208 57.872 51.544 54.752 51.832 51.68C52.12 48.608 52.264 45.584 52.264 42.608C51.88 42.8 51.64 42.944 51.544 43.04C51.256 43.424 50.92 44.096 50.536 45.056C46.888 51.968 43.384 59.072 40.024 66.368C36.76 73.568 34.024 80.912 31.816 88.4L30.952 91.856C30.664 92.816 29.992 93.392 28.936 93.584C28.648 93.68 28.312 93.728 27.928 93.728C27.64 93.728 27.352 93.728 27.064 93.728C25.816 93.728 24.952 93.584 24.472 93.296C24.088 92.912 23.752 92.144 23.464 90.992C23.176 89.744 22.792 88.592 22.312 87.536C21.832 86.384 21.352 85.28 20.872 84.224C19.912 82.304 19 80.432 18.136 78.608C17.368 76.688 16.552 74.768 15.688 72.848C15.016 71.408 14.344 70.016 13.672 68.672C13 67.232 12.28 65.84 11.512 64.496C11.416 64.4 11.32 64.352 11.224 64.352C11.128 64.256 11.032 64.16 10.936 64.064C10.936 64.16 10.888 64.256 10.792 64.352C10.792 64.352 10.792 64.4 10.792 64.496V66.224L11.656 77.024C11.752 78.272 11.8 79.52 11.8 80.768C11.8 81.92 11.848 83.12 11.944 84.368C12.136 86.864 12.28 89.408 12.376 92C12.568 94.496 12.76 96.992 12.952 99.488L13.384 106.832C13.384 107.696 12.952 108.224 12.088 108.416H10.504C9.64 108.416 8.92 108.272 8.344 107.984C7.768 107.6 7.384 106.784 7.192 105.536C5.56 97.088 4.168 88.592 3.016 80.048C1.864 71.408 1.096 62.768 0.712 54.128ZM68.7284 53.696C69.1124 52.928 69.3524 52.352 69.4484 51.968C69.9284 50.432 71.0324 49.568 72.7604 49.376H73.0484C74.2964 49.376 75.1124 49.568 75.4964 49.952C75.9764 50.24 76.2164 51.056 76.2164 52.4V53.12C76.0244 54.272 75.8804 55.472 75.7844 56.72C75.6884 57.968 75.5444 59.264 75.3524 60.608L73.6244 73.136L72.3284 81.344C72.0404 83.264 71.7044 85.136 71.3204 86.96C71.0324 88.784 70.7444 90.656 70.4564 92.576C70.2644 94.208 69.8324 95.168 69.1604 95.456C68.5844 95.744 67.5764 95.888 66.1364 95.888C65.7524 95.888 65.4644 95.84 65.2724 95.744C64.0244 95.456 63.4004 94.688 63.4004 93.44C63.4004 90.272 63.4964 86.96 63.6884 83.504C63.7844 80.048 64.0724 76.592 64.5524 73.136C64.9364 69.68 65.4644 66.32 66.1364 63.056C66.8084 59.696 67.6724 56.576 68.7284 53.696ZM72.1844 39.44C72.7604 39.056 73.1924 38.816 73.4804 38.72C73.4804 38.528 73.4804 38.336 73.4804 38.144C73.4804 37.952 73.5284 37.76 73.6244 37.568C74.1044 37.28 74.5364 37.136 74.9204 37.136C75.2084 37.136 75.6404 37.232 76.2164 37.424C76.5044 37.424 76.6484 37.568 76.6484 37.856C77.1284 37.856 77.6564 38.048 78.2324 38.432C78.9044 38.816 79.2404 39.344 79.2404 40.016C79.2404 40.112 79.1924 40.256 79.0964 40.448C79.0004 40.64 78.9044 40.832 78.8084 41.024C78.1364 41.696 77.4164 42.08 76.6484 42.176C75.9764 42.272 75.1124 42.32 74.0564 42.32C73.8644 42.128 73.5764 41.984 73.1924 41.888C72.8084 41.792 72.4724 41.648 72.1844 41.456V41.744C71.8964 41.744 71.7524 41.504 71.7524 41.024C71.7524 40.256 71.8964 39.728 72.1844 39.44ZM81.4307 71.12C81.9107 68.816 82.5828 66.368 83.4468 63.776C84.3108 61.184 85.4628 58.832 86.9028 56.72C88.3428 54.512 90.0708 52.688 92.0868 51.248C94.1028 49.808 96.5508 49.088 99.4308 49.088H99.8628C100.631 49.088 101.111 49.04 101.303 48.944C101.495 48.752 101.687 48.272 101.879 47.504C102.071 46.544 102.263 45.824 102.455 45.344C102.647 44.576 102.887 44.096 103.175 43.904C103.559 43.616 104.135 43.472 104.903 43.472H106.631C107.879 43.568 108.647 44.24 108.935 45.488L109.367 48.512V50.24C109.559 57.344 109.751 64.4 109.943 71.408C110.231 78.416 110.279 85.472 110.087 92.576C109.991 95.168 109.847 98.288 109.655 101.936C109.559 105.488 109.175 109.088 108.503 112.736C107.927 116.48 107.063 119.936 105.911 123.104C104.759 126.368 103.127 128.912 101.015 130.736C99.4788 131.984 97.4628 132.608 94.9668 132.608C91.8948 132.608 89.4468 131.408 87.6228 129.008C85.8948 126.704 84.5508 123.872 83.5908 120.512C82.7268 117.248 82.1508 113.84 81.8628 110.288C81.6707 106.832 81.5747 103.952 81.5747 101.648C81.6707 100.4 82.3908 99.776 83.7348 99.776C84.5988 99.776 85.0788 100.208 85.1748 101.072L85.6068 107.12C85.7988 108.848 86.0388 110.72 86.3268 112.736C86.6148 114.848 87.0468 116.912 87.6228 118.928C88.2948 121.04 89.0628 123.008 89.9268 124.832C90.8868 126.656 92.0868 128.144 93.5268 129.296C94.0068 129.776 94.4868 130.016 94.9668 130.016C95.9268 130.016 96.7908 129.44 97.5588 128.288C98.4228 127.136 99.1908 125.792 99.8628 124.256C100.535 122.72 101.063 121.184 101.447 119.648C101.831 118.208 102.071 117.104 102.167 116.336C103.031 110.384 103.463 104.48 103.463 98.624C103.463 93.92 103.415 89.504 103.319 85.376C103.223 81.152 103.127 76.496 103.031 71.408C103.031 70.64 102.983 69.92 102.887 69.248C102.791 68.576 102.695 67.856 102.599 67.088C102.503 66.896 102.455 66.8 102.455 66.8C102.167 66.8 102.023 66.848 102.023 66.944C101.447 68.48 100.871 70.016 100.295 71.552C99.7188 72.992 99.1908 74.48 98.7108 76.016C98.3268 77.072 97.7988 78.224 97.1268 79.472C96.5508 80.72 95.8308 81.92 94.9668 83.072C94.1028 84.128 93.1428 85.04 92.0868 85.808C91.0308 86.48 89.8308 86.816 88.4868 86.816C88.0068 86.816 87.4788 86.816 86.9028 86.816C86.4228 86.816 85.9428 86.768 85.4628 86.672C83.6388 86.48 82.3908 85.76 81.7188 84.512C81.1427 83.264 80.8547 81.824 80.8547 80.192C80.7587 78.656 80.7587 77.168 80.8547 75.728C80.8547 74.192 81.0467 72.656 81.4307 71.12ZM89.2068 79.328C89.6868 79.232 90.2628 78.608 90.9348 77.456C91.7028 76.304 92.4228 74.864 93.0948 73.136C93.8628 71.408 94.6308 69.488 95.3988 67.376C96.1668 65.264 96.8868 63.296 97.5588 61.472C98.2308 59.552 98.7588 57.872 99.1428 56.432C99.6228 54.896 99.9588 53.84 100.151 53.264C100.151 53.072 100.151 52.928 100.151 52.832C100.247 52.64 100.247 52.496 100.151 52.4C100.055 52.304 99.9108 52.256 99.7188 52.256C99.2388 52.256 98.6628 52.592 97.9908 53.264C97.3188 53.936 96.6468 54.704 95.9748 55.568C95.3028 56.432 94.6788 57.296 94.1028 58.16C93.6228 59.024 93.2868 59.648 93.0948 60.032C91.8468 62.816 90.8868 65.696 90.2148 68.672C89.6388 71.648 89.2068 74.672 88.9188 77.744H88.7748C88.8708 78.032 89.0148 78.56 89.2068 79.328ZM114.461 33.68C114.557 31.76 114.653 29.504 114.749 26.912C114.845 24.224 115.037 21.536 115.325 18.848C115.613 16.064 115.997 13.376 116.477 10.784C116.957 8.192 117.533 6.032 118.205 4.304C118.685 3.05599 119.597 2.43199 120.941 2.43199C121.997 2.43199 122.717 2.62399 123.101 3.008C123.581 3.296 123.773 3.968 123.677 5.024C123.485 6.84799 123.341 8.62399 123.245 10.352C123.149 12.08 123.005 13.856 122.813 15.68C122.813 15.968 122.765 16.256 122.669 16.544C122.669 16.832 122.669 17.12 122.669 17.408C122.573 20.768 122.429 24.176 122.237 27.632C122.045 30.992 121.949 34.352 121.949 37.712V72.272C121.949 72.848 121.949 73.424 121.949 74C122.045 74.576 122.141 75.152 122.237 75.728C122.237 75.824 122.477 76.016 122.957 76.304C123.149 76.112 123.245 75.968 123.245 75.872C124.589 71.456 126.221 67.232 128.141 63.2C130.157 59.168 132.845 55.472 136.205 52.112C137.357 50.672 138.893 49.952 140.813 49.952C143.021 49.952 144.509 50.672 145.277 52.112C146.045 53.456 146.429 55.088 146.429 57.008C146.429 58.64 146.429 60.224 146.429 61.76C146.525 63.296 146.525 64.88 146.429 66.512C146.237 69.392 146.093 72.272 145.997 75.152C145.901 78.032 145.805 80.912 145.709 83.792C145.613 85.136 145.421 86.432 145.133 87.68C144.941 88.928 144.749 90.224 144.557 91.568C144.365 92.72 143.981 93.488 143.405 93.872C142.925 94.256 142.109 94.448 140.957 94.448H140.093C139.325 94.256 138.749 93.872 138.365 93.296C137.981 92.624 137.789 91.904 137.789 91.136C137.597 89.6 137.405 88.112 137.213 86.672C137.021 85.136 137.021 83.552 137.213 81.92C137.309 81.152 137.357 80.432 137.357 79.76C137.357 79.088 137.357 78.368 137.357 77.6C137.453 75.2 137.597 72.848 137.789 70.544C138.077 68.144 138.317 65.744 138.509 63.344C138.701 61.904 138.893 60.464 139.085 59.024C139.373 57.584 139.421 56.144 139.229 54.704V54.416C138.941 54.416 138.749 54.464 138.653 54.56C135.389 57.824 132.797 61.472 130.877 65.504C128.957 69.44 127.517 73.568 126.557 77.888C125.597 82.208 124.925 86.624 124.541 91.136C124.253 95.648 124.013 100.112 123.821 104.528C123.821 105.872 123.485 106.736 122.813 107.12C122.237 107.408 121.373 107.552 120.221 107.552C118.781 107.456 117.917 106.64 117.629 105.104C116.285 97.04 115.421 89.024 115.037 81.056C114.653 72.992 114.365 64.88 114.173 56.72C114.173 52.784 114.173 48.944 114.173 45.2C114.173 41.36 114.269 37.52 114.461 33.68ZM145.267 58.592C145.747 58.4 146.179 58.256 146.563 58.16C146.947 58.064 147.379 57.968 147.859 57.872L151.315 57.008C152.083 56.912 152.467 56.48 152.467 55.712C152.563 54.368 152.659 53.024 152.755 51.68C152.851 50.24 152.899 48.848 152.899 47.504C152.899 44.624 152.995 41.84 153.187 39.152C153.475 36.368 154.003 33.584 154.771 30.8C154.867 30.032 155.443 29.552 156.499 29.36H156.931C158.275 29.36 159.187 29.552 159.667 29.936C160.243 30.224 160.531 31.088 160.531 32.528C160.531 35.504 160.531 38.432 160.531 41.312C160.531 44.096 160.483 46.976 160.387 49.952V54.704C160.387 55.568 160.723 56 161.395 56H161.971C162.355 55.904 162.691 55.808 162.979 55.712C163.363 55.616 163.747 55.52 164.131 55.424C165.571 55.232 167.011 55.04 168.451 54.848C169.891 54.656 171.283 54.32 172.627 53.84C173.203 53.648 173.635 53.552 173.923 53.552C174.211 53.552 174.643 53.648 175.219 53.84C175.987 54.224 176.083 54.704 175.507 55.28C174.355 56.336 172.915 57.008 171.187 57.296L162.979 58.592C162.403 58.592 161.971 58.64 161.683 58.736C160.819 58.832 160.387 59.312 160.387 60.176V63.2C160.387 67.136 160.243 71.024 159.955 74.864C159.763 78.704 159.763 82.592 159.955 86.528C160.147 89.6 160.243 92.72 160.243 95.888C160.339 98.96 160.483 102.032 160.675 105.104C160.771 106.64 160.867 108.176 160.963 109.712C161.059 111.248 161.347 112.784 161.827 114.32C162.019 115.088 161.683 115.472 160.819 115.472C159.571 115.472 158.659 115.328 158.083 115.04C157.507 114.752 157.027 113.984 156.643 112.736C156.163 111.104 155.779 109.472 155.491 107.84C155.203 106.208 154.963 104.576 154.771 102.944C154.003 96.896 153.427 90.944 153.043 85.088C152.659 79.136 152.467 73.136 152.467 67.088V63.2C152.467 62.72 152.515 62.192 152.611 61.616C152.707 61.04 152.563 60.512 152.179 60.032L149.011 60.464C148.435 60.56 147.859 60.656 147.283 60.752C146.707 60.752 146.131 60.752 145.555 60.752C144.787 60.752 144.307 60.512 144.115 60.032C143.923 59.36 144.307 58.88 145.267 58.592ZM170.724 65.504C170.916 64.64 171.252 63.152 171.732 61.04C172.212 58.928 172.788 56.816 173.46 54.704C174.228 52.592 175.092 50.72 176.052 49.088C177.108 47.456 178.212 46.64 179.364 46.64C179.748 46.64 180.228 46.784 180.804 47.072C181.38 47.264 181.668 47.648 181.668 48.224C181.572 48.992 181.428 49.712 181.236 50.384C181.14 50.96 181.044 51.584 180.948 52.256C180.468 54.464 179.988 56.624 179.508 58.736C179.028 60.848 178.596 63.008 178.212 65.216C177.348 68.96 177.204 72.704 177.78 76.448C177.78 76.64 177.828 77.072 177.924 77.744C178.116 78.416 178.404 78.752 178.788 78.752C179.076 78.752 179.412 78.56 179.796 78.176C180.18 77.792 180.564 77.36 180.948 76.88C181.332 76.4 181.716 75.92 182.1 75.44C182.484 74.96 182.724 74.624 182.82 74.432C184.452 71.36 185.94 68.336 187.284 65.36C188.724 62.384 190.02 59.312 191.172 56.144C191.652 54.896 192.084 53.696 192.468 52.544C192.852 51.296 193.284 50.048 193.764 48.8C193.956 48.032 194.244 47.552 194.628 47.36C195.012 47.168 195.588 47.072 196.356 47.072C198.756 47.072 200.148 47.744 200.532 49.088C201.012 50.432 201.252 52.112 201.252 54.128C201.444 58.64 201.636 63.104 201.828 67.52C202.116 71.936 202.356 76.448 202.548 81.056C202.644 83.36 202.596 85.664 202.404 87.968C202.212 90.272 202.02 92.576 201.828 94.88C201.636 96.608 201.396 98.576 201.108 100.784C200.82 102.896 200.436 105.056 199.956 107.264C199.476 109.376 198.852 111.44 198.084 113.456C197.412 115.568 196.596 117.392 195.636 118.928C193.812 121.616 191.412 122.96 188.436 122.96H187.14C184.356 122.96 182.292 121.952 180.948 119.936C179.7 118.016 178.884 115.808 178.5 113.312C178.116 111.392 177.828 109.472 177.636 107.552C177.54 105.536 177.588 103.52 177.78 101.504C177.78 100.928 177.876 100.208 178.068 99.344C178.26 98.48 178.5 97.664 178.788 96.896C179.172 96.128 179.604 95.504 180.084 95.024C180.66 94.448 181.38 94.16 182.244 94.16C182.436 94.16 182.628 94.208 182.82 94.304C183.396 94.304 183.588 94.544 183.396 95.024C182.532 96.08 182.052 97.232 181.956 98.48C181.86 99.632 181.812 100.832 181.812 102.08C181.812 102.752 181.908 104.048 182.1 105.968C182.292 107.888 182.58 109.856 182.964 111.872C183.348 113.888 183.876 115.664 184.548 117.2C185.316 118.736 186.18 119.504 187.14 119.504C188.196 119.504 189.06 118.688 189.732 117.056C190.5 115.424 191.124 113.312 191.604 110.72C192.18 108.224 192.612 105.44 192.9 102.368C193.188 99.296 193.428 96.368 193.62 93.584C193.812 90.8 193.956 88.352 194.052 86.24C194.148 84.032 194.196 82.592 194.196 81.92V67.232C194.196 66.464 194.148 65.888 194.052 65.504C194.052 65.312 194.004 65.168 193.908 65.072C193.812 64.976 193.716 64.832 193.62 64.64L193.188 65.072C192.708 66.128 192.228 67.232 191.748 68.384C191.268 69.44 190.788 70.496 190.308 71.552C189.732 72.704 189.06 73.952 188.292 75.296C187.62 76.64 186.804 77.888 185.844 79.04C184.98 80.096 183.924 81.008 182.676 81.776C181.524 82.544 180.228 82.976 178.788 83.072H176.628C175.284 83.072 174.18 82.784 173.316 82.208C172.452 81.632 171.78 80.912 171.3 80.048C170.916 79.088 170.628 78.08 170.436 77.024C170.244 75.872 170.1 74.768 170.004 73.712C169.908 72.368 169.956 71.024 170.148 69.68C170.34 68.24 170.532 66.848 170.724 65.504ZM225.959 90.992C226.055 86.768 226.295 82.16 226.679 77.168C226.967 72.176 227.543 67.184 228.408 62.192C229.272 57.2 230.472 52.4 232.008 47.792C233.544 43.088 235.608 38.96 238.2 35.408C239.256 33.872 240.696 33.104 242.52 33.104H244.248C246.84 33.104 248.76 34.112 250.008 36.128C251.256 38.048 252.12 40.112 252.6 42.32C254.232 49.232 255.624 56.144 256.776 63.056C258.024 69.872 258.936 76.784 259.512 83.792L260.808 101.936C260.904 102.704 261 103.424 261.096 104.096C261.192 104.768 261.288 105.488 261.384 106.256C261.384 107.024 260.952 107.504 260.088 107.696H258.36C257.304 107.696 256.632 107.264 256.344 106.4L255.48 103.376L252.456 89.12C252.36 88.544 251.976 88.256 251.304 88.256C250.536 88.256 249.816 88.256 249.144 88.256C248.472 88.256 247.752 88.304 246.984 88.4L234.888 90.128C234.504 90.128 234.216 90.176 234.024 90.272C233.352 90.464 233.016 90.848 233.016 91.424V94.016C233.016 96.608 232.968 99.2 232.872 101.792C232.776 104.384 232.632 106.976 232.439 109.568C232.344 110.816 231.672 111.584 230.424 111.872H229.992C229.8 111.872 229.608 111.872 229.416 111.872C229.32 111.968 229.176 112.016 228.984 112.016C227.255 112.016 226.343 111.008 226.247 108.992C226.151 107.936 226.151 106.928 226.247 105.968C226.247 105.008 226.247 104 226.247 102.944V96.896L225.959 96.608V90.992ZM233.016 84.512L233.16 84.8V85.952C233.352 86.432 233.64 86.624 234.024 86.528L249.576 83.936H250.008C250.872 83.648 251.256 83.024 251.16 82.064C251.064 81.488 250.968 80.912 250.872 80.336C250.776 79.76 250.68 79.184 250.584 78.608C249.144 70.928 247.848 63.392 246.695 56L244.536 42.608C244.44 42.128 244.296 41.648 244.104 41.168C244.008 40.592 243.864 40.064 243.672 39.584C243.576 39.392 243.336 39.2 242.952 39.008C242.856 39.008 242.664 39.152 242.376 39.44C240.36 42.8 238.824 46.592 237.768 50.816C236.808 54.944 235.992 58.88 235.32 62.624C234.648 66.272 234.168 69.92 233.88 73.568C233.592 77.12 233.304 80.768 233.016 84.512ZM266.058 49.664C266.442 49.568 266.778 49.52 267.066 49.52C267.354 49.424 267.69 49.376 268.074 49.376C268.266 49.376 268.506 49.424 268.794 49.52C269.082 49.52 269.322 49.52 269.514 49.52C270.282 49.616 270.858 50.048 271.242 50.816L273.402 54.272C273.69 54.752 273.93 55.184 274.122 55.568C274.41 55.952 274.698 56.384 274.986 56.864C275.754 57.92 276.234 58.448 276.426 58.448C276.714 58.448 277.146 57.824 277.722 56.576C278.49 55.136 279.21 53.696 279.882 52.256C280.65 50.816 281.418 49.376 282.186 47.936C282.858 46.688 283.722 45.392 284.778 44.048C285.93 42.608 287.274 41.888 288.81 41.888C289.578 41.888 290.154 41.936 290.538 42.032C290.73 42.032 290.874 42.128 290.97 42.32C291.162 42.512 291.21 42.704 291.114 42.896L290.25 45.056C288.81 48.32 287.466 51.584 286.218 54.848C284.97 58.112 283.722 61.424 282.474 64.784C281.898 66.128 282.042 67.28 282.906 68.24C284.826 70.544 286.554 73.088 288.09 75.872C289.722 78.656 291.066 81.44 292.122 84.224L294.282 89.408C294.474 89.792 294.666 90.176 294.858 90.56C295.146 90.848 295.386 91.184 295.578 91.568C295.962 92.144 296.298 92.768 296.586 93.44C296.874 94.016 296.778 94.64 296.298 95.312C295.818 95.888 295.05 96.176 293.994 96.176H292.698C291.642 96.176 290.826 95.648 290.25 94.592L286.794 88.112L280.314 76.88C280.122 76.592 279.93 76.352 279.738 76.16C279.546 75.872 279.354 75.584 279.162 75.296C279.162 75.104 279.018 75.008 278.73 75.008C278.634 75.008 278.49 75.104 278.298 75.296C278.106 75.776 277.914 76.304 277.722 76.88C277.53 77.36 277.338 77.84 277.146 78.32C275.994 81.68 274.89 85.04 273.834 88.4C272.778 91.664 271.77 94.976 270.81 98.336L270.378 100.064C270.186 100.832 269.946 101.36 269.658 101.648C269.37 101.84 268.842 101.936 268.074 101.936C267.594 101.936 267.114 101.792 266.634 101.504C266.346 101.312 266.106 100.976 265.914 100.496C265.722 100.112 265.674 99.584 265.77 98.912C265.866 98.144 266.01 97.376 266.202 96.608C266.394 95.744 266.634 94.928 266.922 94.16C267.114 93.296 267.258 92.624 267.354 92.144C269.082 84.08 271.098 76.208 273.402 68.528C273.882 67.28 273.738 66.224 272.97 65.36C271.338 63.248 269.802 60.992 268.362 58.592C267.018 56.096 265.962 53.6 265.194 51.104C265.002 50.336 265.29 49.856 266.058 49.664ZM315.411 56.144C316.467 56.144 317.331 56.288 318.003 56.576C318.771 56.768 319.251 57.488 319.443 58.736C319.443 59.312 319.491 59.696 319.587 59.888C319.875 60.368 320.163 60.848 320.451 61.328C320.835 61.808 321.171 62.288 321.459 62.768C321.651 63.152 321.843 63.824 322.035 64.784C322.227 66.608 322.227 68.48 322.035 70.4C321.939 72.224 321.651 74.048 321.171 75.872C320.883 77.216 320.355 78.704 319.587 80.336C318.819 81.872 317.859 83.312 316.707 84.656C315.651 85.904 314.451 86.96 313.107 87.824C311.763 88.688 310.275 89.12 308.643 89.12C305.859 89.12 303.507 88.112 301.587 86.096C299.763 84.08 298.851 81.728 298.851 79.04C298.851 76.832 299.187 74.384 299.859 71.696C300.627 69.008 301.683 66.512 303.027 64.208C304.467 61.904 306.195 59.984 308.211 58.448C310.323 56.912 312.723 56.144 315.411 56.144ZM306.195 81.92C306.291 82.688 306.531 83.696 306.915 84.944C307.395 86.192 308.163 86.816 309.219 86.816C309.987 86.816 310.755 86.384 311.523 85.52C312.291 84.56 313.011 83.504 313.683 82.352C314.355 81.104 314.931 79.904 315.411 78.752C315.891 77.504 316.179 76.592 316.275 76.016C316.563 74.384 316.803 72.608 316.995 70.688C317.283 68.672 317.331 66.992 317.139 65.648C317.043 65.072 316.803 64.256 316.419 63.2C316.131 62.144 315.603 61.616 314.835 61.616C314.451 61.616 314.115 61.76 313.827 62.048C311.619 64.544 309.987 67.184 308.931 69.968C307.971 72.656 307.107 75.584 306.339 78.752C306.051 79.712 306.003 80.768 306.195 81.92ZM328.148 60.32C329.204 52.544 330.26 44.816 331.316 37.136C332.372 29.456 333.812 21.728 335.636 13.952C335.636 13.856 335.636 13.808 335.636 13.808C335.732 13.712 335.78 13.616 335.78 13.52C336.548 11.312 337.748 10.208 339.38 10.208C340.052 10.208 340.676 10.352 341.252 10.64C341.828 10.928 342.356 11.264 342.836 11.648C343.412 12.128 343.988 12.656 344.564 13.232C344.276 14.96 343.94 16.688 343.556 18.416C343.268 20.144 342.98 21.872 342.692 23.6C342.404 25.328 342.116 27.056 341.828 28.784C341.54 30.512 341.3 32.24 341.108 33.968L339.38 47.36C338.42 54.848 337.556 62.336 336.788 69.824L335.924 76.736L334.196 97.04C334.1 98 334.1 99.056 334.196 100.208C334.388 101.264 334.292 102.032 333.908 102.512C333.62 102.896 332.9 103.184 331.748 103.376H330.884C329.924 103.376 329.156 102.944 328.58 102.08C328.1 101.216 327.716 100.208 327.428 99.056C327.14 97.904 326.948 96.752 326.852 95.6C326.756 94.352 326.708 93.392 326.708 92.72C326.708 91.472 326.612 90.272 326.42 89.12C326.324 87.872 326.276 86.624 326.276 85.376C326.372 81.248 326.564 77.12 326.852 72.992C327.236 68.768 327.668 64.544 328.148 60.32ZM361.676 56.144C362.732 56.144 363.596 56.288 364.268 56.576C365.036 56.768 365.516 57.488 365.708 58.736C365.708 59.312 365.756 59.696 365.852 59.888C366.14 60.368 366.428 60.848 366.716 61.328C367.1 61.808 367.436 62.288 367.724 62.768C367.916 63.152 368.108 63.824 368.3 64.784C368.492 66.608 368.492 68.48 368.3 70.4C368.204 72.224 367.916 74.048 367.436 75.872C367.148 77.216 366.62 78.704 365.852 80.336C365.084 81.872 364.124 83.312 362.972 84.656C361.916 85.904 360.716 86.96 359.372 87.824C358.028 88.688 356.54 89.12 354.908 89.12C352.124 89.12 349.772 88.112 347.852 86.096C346.028 84.08 345.116 81.728 345.116 79.04C345.116 76.832 345.452 74.384 346.124 71.696C346.892 69.008 347.948 66.512 349.292 64.208C350.732 61.904 352.46 59.984 354.476 58.448C356.588 56.912 358.988 56.144 361.676 56.144ZM352.46 81.92C352.556 82.688 352.796 83.696 353.18 84.944C353.66 86.192 354.428 86.816 355.484 86.816C356.252 86.816 357.02 86.384 357.788 85.52C358.556 84.56 359.276 83.504 359.948 82.352C360.62 81.104 361.196 79.904 361.676 78.752C362.156 77.504 362.444 76.592 362.54 76.016C362.828 74.384 363.068 72.608 363.26 70.688C363.548 68.672 363.596 66.992 363.404 65.648C363.308 65.072 363.068 64.256 362.684 63.2C362.396 62.144 361.868 61.616 361.1 61.616C360.716 61.616 360.38 61.76 360.092 62.048C357.884 64.544 356.252 67.184 355.196 69.968C354.236 72.656 353.372 75.584 352.604 78.752C352.316 79.712 352.268 80.768 352.46 81.92ZM365.485 58.592C365.965 58.4 366.397 58.256 366.781 58.16C367.165 58.064 367.597 57.968 368.077 57.872L371.533 57.008C372.301 56.912 372.685 56.48 372.685 55.712C372.781 54.368 372.877 53.024 372.973 51.68C373.069 50.24 373.117 48.848 373.117 47.504C373.117 44.624 373.213 41.84 373.405 39.152C373.693 36.368 374.221 33.584 374.989 30.8C375.085 30.032 375.661 29.552 376.717 29.36H377.149C378.493 29.36 379.405 29.552 379.885 29.936C380.461 30.224 380.749 31.088 380.749 32.528C380.749 35.504 380.749 38.432 380.749 41.312C380.749 44.096 380.701 46.976 380.605 49.952V54.704C380.605 55.568 380.941 56 381.613 56H382.189C382.573 55.904 382.909 55.808 383.197 55.712C383.581 55.616 383.965 55.52 384.349 55.424C385.789 55.232 387.229 55.04 388.669 54.848C390.109 54.656 391.501 54.32 392.845 53.84C393.421 53.648 393.853 53.552 394.141 53.552C394.429 53.552 394.861 53.648 395.437 53.84C396.205 54.224 396.301 54.704 395.725 55.28C394.573 56.336 393.133 57.008 391.405 57.296L383.197 58.592C382.621 58.592 382.189 58.64 381.901 58.736C381.037 58.832 380.605 59.312 380.605 60.176V63.2C380.605 67.136 380.461 71.024 380.173 74.864C379.981 78.704 379.981 82.592 380.173 86.528C380.365 89.6 380.461 92.72 380.461 95.888C380.557 98.96 380.701 102.032 380.893 105.104C380.989 106.64 381.085 108.176 381.181 109.712C381.277 111.248 381.565 112.784 382.045 114.32C382.237 115.088 381.901 115.472 381.037 115.472C379.789 115.472 378.877 115.328 378.301 115.04C377.725 114.752 377.245 113.984 376.861 112.736C376.381 111.104 375.997 109.472 375.709 107.84C375.421 106.208 375.181 104.576 374.989 102.944C374.221 96.896 373.645 90.944 373.261 85.088C372.877 79.136 372.685 73.136 372.685 67.088V63.2C372.685 62.72 372.733 62.192 372.829 61.616C372.925 61.04 372.781 60.512 372.397 60.032L369.229 60.464C368.653 60.56 368.077 60.656 367.501 60.752C366.925 60.752 366.349 60.752 365.773 60.752C365.005 60.752 364.525 60.512 364.333 60.032C364.141 59.36 364.525 58.88 365.485 58.592ZM393.679 60.32C394.735 52.544 395.791 44.816 396.847 37.136C397.903 29.456 399.343 21.728 401.167 13.952C401.167 13.856 401.167 13.808 401.167 13.808C401.263 13.712 401.311 13.616 401.311 13.52C402.079 11.312 403.279 10.208 404.911 10.208C405.583 10.208 406.207 10.352 406.783 10.64C407.359 10.928 407.887 11.264 408.367 11.648C408.943 12.128 409.519 12.656 410.095 13.232C409.807 14.96 409.471 16.688 409.087 18.416C408.799 20.144 408.511 21.872 408.223 23.6C407.935 25.328 407.647 27.056 407.359 28.784C407.071 30.512 406.831 32.24 406.639 33.968L404.911 47.36C403.951 54.848 403.087 62.336 402.319 69.824L401.455 76.736L399.727 97.04C399.631 98 399.631 99.056 399.727 100.208C399.919 101.264 399.823 102.032 399.439 102.512C399.151 102.896 398.431 103.184 397.279 103.376H396.415C395.455 103.376 394.687 102.944 394.111 102.08C393.631 101.216 393.247 100.208 392.959 99.056C392.671 97.904 392.479 96.752 392.383 95.6C392.287 94.352 392.239 93.392 392.239 92.72C392.239 91.472 392.143 90.272 391.951 89.12C391.855 87.872 391.807 86.624 391.807 85.376C391.903 81.248 392.095 77.12 392.383 72.992C392.767 68.768 393.199 64.544 393.679 60.32Z" fill="url(#paint0_linear)"/>
</g>
<defs>
<filter id="filter0_di" x="-2.28809" y="0.432129" width="412.383" height="136.176" filterUnits="userSpaceOnUse" color-interpolation-filters="sRGB">
<feFlood flood-opacity="0" result="BackgroundImageFix"/>
<feColorMatrix in="SourceAlpha" type="matrix" values="0 0 0 0 0 0 0 0 0 0 0 0 0 0 0 0 0 0 127 0" result="hardAlpha"/>
<feOffset dy="-2"/>
<feComposite in2="hardAlpha" operator="out"/>
<feColorMatrix type="matrix" values="0 0 0 0 0 0 0 0 0 0 0 0 0 0 0 0 0 0 0.25 0"/>
<feBlend mode="normal" in2="BackgroundImageFix" result="effect1_dropShadow"/>
<feBlend mode="normal" in="SourceGraphic" in2="effect1_dropShadow" result="shape"/>
<feColorMatrix in="SourceAlpha" type="matrix" values="0 0 0 0 0 0 0 0 0 0 0 0 0 0 0 0 0 0 127 0" result="hardAlpha"/>
<feOffset dx="-3" dy="4"/>
<feGaussianBlur stdDeviation="2"/>
<feComposite in2="hardAlpha" operator="arithmetic" k2="-1" k3="1"/>
<feColorMatrix type="matrix" values="0 0 0 0 0 0 0 0 0 0 0 0 0 0 0 0 0 0 0.25 0"/>
<feBlend mode="normal" in2="shape" result="effect2_innerShadow"/>
</filter>
<linearGradient id="paint0_linear" x1="1" y1="35.5784" x2="411.025" y2="32.3489" gradientUnits="userSpaceOnUse">
<stop stop-color="#E7A99F"/>
<stop offset="0.604167" stop-color="#CED7C0"/>
<stop offset="1" stop-color="#799561"/>
</linearGradient>
</defs>
</svg>
