<svg width="411" height="131" viewBox="0 0 411 131" fill="none" xmlns="http://www.w3.org/2000/svg">
<path d="M0.712 52.128C0.712 50.88 0.76 49.68 0.856 48.528C0.856 47.28 0.904 46.032 1 44.784C1 43.152 1.432 42.096 2.296 41.616C3.256 41.04 4.408 40.752 5.752 40.752C6.424 40.752 7.048 40.8 7.624 40.896C8.296 40.992 8.776 41.376 9.064 42.048C9.256 42.624 9.352 43.056 9.352 43.344C9.352 44.112 9.64 44.784 10.216 45.36C11.368 46.416 12.76 48.432 14.392 51.408C16.024 54.288 17.608 57.456 19.144 60.912C20.776 64.272 22.216 67.536 23.464 70.704C24.712 73.776 25.624 76.08 26.2 77.616L27.064 79.776C27.16 79.968 27.208 80.064 27.208 80.064C27.496 80.064 27.688 80.016 27.784 79.92C27.976 79.728 28.168 79.344 28.36 78.768C30.856 72.816 33.496 67.008 36.28 61.344C39.064 55.68 41.992 50.016 45.064 44.352C45.928 42.72 46.792 41.136 47.656 39.6C48.616 38.064 49.672 36.624 50.824 35.28L51.688 33.984C52.552 32.928 53.608 32.4 54.856 32.4H56.152C58.072 32.496 59.176 33.504 59.464 35.424C59.56 35.904 59.608 36.336 59.608 36.72C59.608 37.104 59.608 37.536 59.608 38.016C59.608 43.104 59.56 48.144 59.464 53.136C59.368 58.128 59.128 63.168 58.744 68.256C58.552 70.656 58.36 73.056 58.168 75.456C58.072 77.76 57.928 80.112 57.736 82.512V85.536L56.44 102.384C56.344 103.152 56.296 103.872 56.296 104.544C56.296 105.216 56.248 105.936 56.152 106.704C56.152 107.472 56.104 108.048 56.008 108.432C55.816 109.296 55.336 109.824 54.568 110.016C53.8 110.208 53.032 110.304 52.264 110.304C51.112 110.304 50.344 110.112 49.96 109.728C49.672 109.344 49.528 108.672 49.528 107.712V87.84L49.24 87.696C49.432 84.432 49.576 81.216 49.672 78.048C49.768 74.784 49.912 71.52 50.104 68.256C50.296 65.184 50.536 62.112 50.824 59.04C51.208 55.872 51.544 52.752 51.832 49.68C52.12 46.608 52.264 43.584 52.264 40.608C51.88 40.8 51.64 40.944 51.544 41.04C51.256 41.424 50.92 42.096 50.536 43.056C46.888 49.968 43.384 57.072 40.024 64.368C36.76 71.568 34.024 78.912 31.816 86.4L30.952 89.856C30.664 90.816 29.992 91.392 28.936 91.584C28.648 91.68 28.312 91.728 27.928 91.728C27.64 91.728 27.352 91.728 27.064 91.728C25.816 91.728 24.952 91.584 24.472 91.296C24.088 90.912 23.752 90.144 23.464 88.992C23.176 87.744 22.792 86.592 22.312 85.536C21.832 84.384 21.352 83.28 20.872 82.224C19.912 80.304 19 78.432 18.136 76.608C17.368 74.688 16.552 72.768 15.688 70.848C15.016 69.408 14.344 68.016 13.672 66.672C13 65.232 12.28 63.84 11.512 62.496C11.416 62.4 11.32 62.352 11.224 62.352C11.128 62.256 11.032 62.16 10.936 62.064C10.936 62.16 10.888 62.256 10.792 62.352C10.792 62.352 10.792 62.4 10.792 62.496V64.224L11.656 75.024C11.752 76.272 11.8 77.52 11.8 78.768C11.8 79.92 11.848 81.12 11.944 82.368C12.136 84.864 12.28 87.408 12.376 90C12.568 92.496 12.76 94.992 12.952 97.488L13.384 104.832C13.384 105.696 12.952 106.224 12.088 106.416H10.504C9.64 106.416 8.92 106.272 8.344 105.984C7.768 105.6 7.384 104.784 7.192 103.536C5.56 95.088 4.168 86.592 3.016 78.048C1.864 69.408 1.096 60.768 0.712 52.128ZM68.7284 51.696C69.1124 50.928 69.3524 50.352 69.4484 49.968C69.9284 48.432 71.0324 47.568 72.7604 47.376H73.0484C74.2964 47.376 75.1124 47.568 75.4964 47.952C75.9764 48.24 76.2164 49.056 76.2164 50.4V51.12C76.0244 52.272 75.8804 53.472 75.7844 54.72C75.6884 55.968 75.5444 57.264 75.3524 58.608L73.6244 71.136L72.3284 79.344C72.0404 81.264 71.7044 83.136 71.3204 84.96C71.0324 86.784 70.7444 88.656 70.4564 90.576C70.2644 92.208 69.8324 93.168 69.1604 93.456C68.5844 93.744 67.5764 93.888 66.1364 93.888C65.7524 93.888 65.4644 93.84 65.2724 93.744C64.0244 93.456 63.4004 92.688 63.4004 91.44C63.4004 88.272 63.4964 84.96 63.6884 81.504C63.7844 78.048 64.0724 74.592 64.5524 71.136C64.9364 67.68 65.4644 64.32 66.1364 61.056C66.8084 57.696 67.6724 54.576 68.7284 51.696ZM72.1844 37.44C72.7604 37.056 73.1924 36.816 73.4804 36.72C73.4804 36.528 73.4804 36.336 73.4804 36.144C73.4804 35.952 73.5284 35.76 73.6244 35.568C74.1044 35.28 74.5364 35.136 74.9204 35.136C75.2084 35.136 75.6404 35.232 76.2164 35.424C76.5044 35.424 76.6484 35.568 76.6484 35.856C77.1284 35.856 77.6564 36.048 78.2324 36.432C78.9044 36.816 79.2404 37.344 79.2404 38.016C79.2404 38.112 79.1924 38.256 79.0964 38.448C79.0004 38.64 78.9044 38.832 78.8084 39.024C78.1364 39.696 77.4164 40.08 76.6484 40.176C75.9764 40.272 75.1124 40.32 74.0564 40.32C73.8644 40.128 73.5764 39.984 73.1924 39.888C72.8084 39.792 72.4724 39.648 72.1844 39.456V39.744C71.8964 39.744 71.7524 39.504 71.7524 39.024C71.7524 38.256 71.8964 37.728 72.1844 37.44ZM81.4307 69.12C81.9107 66.816 82.5828 64.368 83.4468 61.776C84.3108 59.184 85.4628 56.832 86.9028 54.72C88.3428 52.512 90.0708 50.688 92.0868 49.248C94.1028 47.808 96.5508 47.088 99.4308 47.088H99.8628C100.631 47.088 101.111 47.04 101.303 46.944C101.495 46.752 101.687 46.272 101.879 45.504C102.071 44.544 102.263 43.824 102.455 43.344C102.647 42.576 102.887 42.096 103.175 41.904C103.559 41.616 104.135 41.472 104.903 41.472H106.631C107.879 41.568 108.647 42.24 108.935 43.488L109.367 46.512V48.24C109.559 55.344 109.751 62.4 109.943 69.408C110.231 76.416 110.279 83.472 110.087 90.576C109.991 93.168 109.847 96.288 109.655 99.936C109.559 103.488 109.175 107.088 108.503 110.736C107.927 114.48 107.063 117.936 105.911 121.104C104.759 124.368 103.127 126.912 101.015 128.736C99.4788 129.984 97.4628 130.608 94.9668 130.608C91.8948 130.608 89.4468 129.408 87.6228 127.008C85.8948 124.704 84.5508 121.872 83.5908 118.512C82.7268 115.248 82.1508 111.84 81.8628 108.288C81.6707 104.832 81.5747 101.952 81.5747 99.648C81.6707 98.4 82.3908 97.776 83.7348 97.776C84.5988 97.776 85.0788 98.208 85.1748 99.072L85.6068 105.12C85.7988 106.848 86.0388 108.72 86.3268 110.736C86.6148 112.848 87.0468 114.912 87.6228 116.928C88.2948 119.04 89.0628 121.008 89.9268 122.832C90.8868 124.656 92.0868 126.144 93.5268 127.296C94.0068 127.776 94.4868 128.016 94.9668 128.016C95.9268 128.016 96.7908 127.44 97.5588 126.288C98.4228 125.136 99.1908 123.792 99.8628 122.256C100.535 120.72 101.063 119.184 101.447 117.648C101.831 116.208 102.071 115.104 102.167 114.336C103.031 108.384 103.463 102.48 103.463 96.624C103.463 91.92 103.415 87.504 103.319 83.376C103.223 79.152 103.127 74.496 103.031 69.408C103.031 68.64 102.983 67.92 102.887 67.248C102.791 66.576 102.695 65.856 102.599 65.088C102.503 64.896 102.455 64.8 102.455 64.8C102.167 64.8 102.023 64.848 102.023 64.944C101.447 66.48 100.871 68.016 100.295 69.552C99.7188 70.992 99.1908 72.48 98.7108 74.016C98.3268 75.072 97.7988 76.224 97.1268 77.472C96.5508 78.72 95.8308 79.92 94.9668 81.072C94.1028 82.128 93.1428 83.04 92.0868 83.808C91.0308 84.48 89.8308 84.816 88.4868 84.816C88.0068 84.816 87.4788 84.816 86.9028 84.816C86.4228 84.816 85.9428 84.768 85.4628 84.672C83.6388 84.48 82.3908 83.76 81.7188 82.512C81.1427 81.264 80.8547 79.824 80.8547 78.192C80.7587 76.656 80.7587 75.168 80.8547 73.728C80.8547 72.192 81.0467 70.656 81.4307 69.12ZM89.2068 77.328C89.6868 77.232 90.2628 76.608 90.9348 75.456C91.7028 74.304 92.4228 72.864 93.0948 71.136C93.8628 69.408 94.6308 67.488 95.3988 65.376C96.1668 63.264 96.8868 61.296 97.5588 59.472C98.2308 57.552 98.7588 55.872 99.1428 54.432C99.6228 52.896 99.9588 51.84 100.151 51.264C100.151 51.072 100.151 50.928 100.151 50.832C100.247 50.64 100.247 50.496 100.151 50.4C100.055 50.304 99.9108 50.256 99.7188 50.256C99.2388 50.256 98.6628 50.592 97.9908 51.264C97.3188 51.936 96.6468 52.704 95.9748 53.568C95.3028 54.432 94.6788 55.296 94.1028 56.16C93.6228 57.024 93.2868 57.648 93.0948 58.032C91.8468 60.816 90.8868 63.696 90.2148 66.672C89.6388 69.648 89.2068 72.672 88.9188 75.744H88.7748C88.8708 76.032 89.0148 76.56 89.2068 77.328ZM114.461 31.68C114.557 29.76 114.653 27.504 114.749 24.912C114.845 22.224 115.037 19.536 115.325 16.848C115.613 14.064 115.997 11.376 116.477 8.784C116.957 6.192 117.533 4.032 118.205 2.304C118.685 1.05599 119.597 0.431994 120.941 0.431994C121.997 0.431994 122.717 0.623995 123.101 1.008C123.581 1.296 123.773 1.968 123.677 3.024C123.485 4.84799 123.341 6.62399 123.245 8.352C123.149 10.08 123.005 11.856 122.813 13.68C122.813 13.968 122.765 14.256 122.669 14.544C122.669 14.832 122.669 15.12 122.669 15.408C122.573 18.768 122.429 22.176 122.237 25.632C122.045 28.992 121.949 32.352 121.949 35.712V70.272C121.949 70.848 121.949 71.424 121.949 72C122.045 72.576 122.141 73.152 122.237 73.728C122.237 73.824 122.477 74.016 122.957 74.304C123.149 74.112 123.245 73.968 123.245 73.872C124.589 69.456 126.221 65.232 128.141 61.2C130.157 57.168 132.845 53.472 136.205 50.112C137.357 48.672 138.893 47.952 140.813 47.952C143.021 47.952 144.509 48.672 145.277 50.112C146.045 51.456 146.429 53.088 146.429 55.008C146.429 56.64 146.429 58.224 146.429 59.76C146.525 61.296 146.525 62.88 146.429 64.512C146.237 67.392 146.093 70.272 145.997 73.152C145.901 76.032 145.805 78.912 145.709 81.792C145.613 83.136 145.421 84.432 145.133 85.68C144.941 86.928 144.749 88.224 144.557 89.568C144.365 90.72 143.981 91.488 143.405 91.872C142.925 92.256 142.109 92.448 140.957 92.448H140.093C139.325 92.256 138.749 91.872 138.365 91.296C137.981 90.624 137.789 89.904 137.789 89.136C137.597 87.6 137.405 86.112 137.213 84.672C137.021 83.136 137.021 81.552 137.213 79.92C137.309 79.152 137.357 78.432 137.357 77.76C137.357 77.088 137.357 76.368 137.357 75.6C137.453 73.2 137.597 70.848 137.789 68.544C138.077 66.144 138.317 63.744 138.509 61.344C138.701 59.904 138.893 58.464 139.085 57.024C139.373 55.584 139.421 54.144 139.229 52.704V52.416C138.941 52.416 138.749 52.464 138.653 52.56C135.389 55.824 132.797 59.472 130.877 63.504C128.957 67.44 127.517 71.568 126.557 75.888C125.597 80.208 124.925 84.624 124.541 89.136C124.253 93.648 124.013 98.112 123.821 102.528C123.821 103.872 123.485 104.736 122.813 105.12C122.237 105.408 121.373 105.552 120.221 105.552C118.781 105.456 117.917 104.64 117.629 103.104C116.285 95.04 115.421 87.024 115.037 79.056C114.653 70.992 114.365 62.88 114.173 54.72C114.173 50.784 114.173 46.944 114.173 43.2C114.173 39.36 114.269 35.52 114.461 31.68ZM145.267 56.592C145.747 56.4 146.179 56.256 146.563 56.16C146.947 56.064 147.379 55.968 147.859 55.872L151.315 55.008C152.083 54.912 152.467 54.48 152.467 53.712C152.563 52.368 152.659 51.024 152.755 49.68C152.851 48.24 152.899 46.848 152.899 45.504C152.899 42.624 152.995 39.84 153.187 37.152C153.475 34.368 154.003 31.584 154.771 28.8C154.867 28.032 155.443 27.552 156.499 27.36H156.931C158.275 27.36 159.187 27.552 159.667 27.936C160.243 28.224 160.531 29.088 160.531 30.528C160.531 33.504 160.531 36.432 160.531 39.312C160.531 42.096 160.483 44.976 160.387 47.952V52.704C160.387 53.568 160.723 54 161.395 54H161.971C162.355 53.904 162.691 53.808 162.979 53.712C163.363 53.616 163.747 53.52 164.131 53.424C165.571 53.232 167.011 53.04 168.451 52.848C169.891 52.656 171.283 52.32 172.627 51.84C173.203 51.648 173.635 51.552 173.923 51.552C174.211 51.552 174.643 51.648 175.219 51.84C175.987 52.224 176.083 52.704 175.507 53.28C174.355 54.336 172.915 55.008 171.187 55.296L162.979 56.592C162.403 56.592 161.971 56.64 161.683 56.736C160.819 56.832 160.387 57.312 160.387 58.176V61.2C160.387 65.136 160.243 69.024 159.955 72.864C159.763 76.704 159.763 80.592 159.955 84.528C160.147 87.6 160.243 90.72 160.243 93.888C160.339 96.96 160.483 100.032 160.675 103.104C160.771 104.64 160.867 106.176 160.963 107.712C161.059 109.248 161.347 110.784 161.827 112.32C162.019 113.088 161.683 113.472 160.819 113.472C159.571 113.472 158.659 113.328 158.083 113.04C157.507 112.752 157.027 111.984 156.643 110.736C156.163 109.104 155.779 107.472 155.491 105.84C155.203 104.208 154.963 102.576 154.771 100.944C154.003 94.896 153.427 88.944 153.043 83.088C152.659 77.136 152.467 71.136 152.467 65.088V61.2C152.467 60.72 152.515 60.192 152.611 59.616C152.707 59.04 152.563 58.512 152.179 58.032L149.011 58.464C148.435 58.56 147.859 58.656 147.283 58.752C146.707 58.752 146.131 58.752 145.555 58.752C144.787 58.752 144.307 58.512 144.115 58.032C143.923 57.36 144.307 56.88 145.267 56.592ZM170.724 63.504C170.916 62.64 171.252 61.152 171.732 59.04C172.212 56.928 172.788 54.816 173.46 52.704C174.228 50.592 175.092 48.72 176.052 47.088C177.108 45.456 178.212 44.64 179.364 44.64C179.748 44.64 180.228 44.784 180.804 45.072C181.38 45.264 181.668 45.648 181.668 46.224C181.572 46.992 181.428 47.712 181.236 48.384C181.14 48.96 181.044 49.584 180.948 50.256C180.468 52.464 179.988 54.624 179.508 56.736C179.028 58.848 178.596 61.008 178.212 63.216C177.348 66.96 177.204 70.704 177.78 74.448C177.78 74.64 177.828 75.072 177.924 75.744C178.116 76.416 178.404 76.752 178.788 76.752C179.076 76.752 179.412 76.56 179.796 76.176C180.18 75.792 180.564 75.36 180.948 74.88C181.332 74.4 181.716 73.92 182.1 73.44C182.484 72.96 182.724 72.624 182.82 72.432C184.452 69.36 185.94 66.336 187.284 63.36C188.724 60.384 190.02 57.312 191.172 54.144C191.652 52.896 192.084 51.696 192.468 50.544C192.852 49.296 193.284 48.048 193.764 46.8C193.956 46.032 194.244 45.552 194.628 45.36C195.012 45.168 195.588 45.072 196.356 45.072C198.756 45.072 200.148 45.744 200.532 47.088C201.012 48.432 201.252 50.112 201.252 52.128C201.444 56.64 201.636 61.104 201.828 65.52C202.116 69.936 202.356 74.448 202.548 79.056C202.644 81.36 202.596 83.664 202.404 85.968C202.212 88.272 202.02 90.576 201.828 92.88C201.636 94.608 201.396 96.576 201.108 98.784C200.82 100.896 200.436 103.056 199.956 105.264C199.476 107.376 198.852 109.44 198.084 111.456C197.412 113.568 196.596 115.392 195.636 116.928C193.812 119.616 191.412 120.96 188.436 120.96H187.14C184.356 120.96 182.292 119.952 180.948 117.936C179.7 116.016 178.884 113.808 178.5 111.312C178.116 109.392 177.828 107.472 177.636 105.552C177.54 103.536 177.588 101.52 177.78 99.504C177.78 98.928 177.876 98.208 178.068 97.344C178.26 96.48 178.5 95.664 178.788 94.896C179.172 94.128 179.604 93.504 180.084 93.024C180.66 92.448 181.38 92.16 182.244 92.16C182.436 92.16 182.628 92.208 182.82 92.304C183.396 92.304 183.588 92.544 183.396 93.024C182.532 94.08 182.052 95.232 181.956 96.48C181.86 97.632 181.812 98.832 181.812 100.08C181.812 100.752 181.908 102.048 182.1 103.968C182.292 105.888 182.58 107.856 182.964 109.872C183.348 111.888 183.876 113.664 184.548 115.2C185.316 116.736 186.18 117.504 187.14 117.504C188.196 117.504 189.06 116.688 189.732 115.056C190.5 113.424 191.124 111.312 191.604 108.72C192.18 106.224 192.612 103.44 192.9 100.368C193.188 97.296 193.428 94.368 193.62 91.584C193.812 88.8 193.956 86.352 194.052 84.24C194.148 82.032 194.196 80.592 194.196 79.92V65.232C194.196 64.464 194.148 63.888 194.052 63.504C194.052 63.312 194.004 63.168 193.908 63.072C193.812 62.976 193.716 62.832 193.62 62.64L193.188 63.072C192.708 64.128 192.228 65.232 191.748 66.384C191.268 67.44 190.788 68.496 190.308 69.552C189.732 70.704 189.06 71.952 188.292 73.296C187.62 74.64 186.804 75.888 185.844 77.04C184.98 78.096 183.924 79.008 182.676 79.776C181.524 80.544 180.228 80.976 178.788 81.072H176.628C175.284 81.072 174.18 80.784 173.316 80.208C172.452 79.632 171.78 78.912 171.3 78.048C170.916 77.088 170.628 76.08 170.436 75.024C170.244 73.872 170.1 72.768 170.004 71.712C169.908 70.368 169.956 69.024 170.148 67.68C170.34 66.24 170.532 64.848 170.724 63.504ZM225.959 88.992C226.055 84.768 226.295 80.16 226.679 75.168C226.967 70.176 227.543 65.184 228.408 60.192C229.272 55.2 230.472 50.4 232.008 45.792C233.544 41.088 235.608 36.96 238.2 33.408C239.256 31.872 240.696 31.104 242.52 31.104H244.248C246.84 31.104 248.76 32.112 250.008 34.128C251.256 36.048 252.12 38.112 252.6 40.32C254.232 47.232 255.624 54.144 256.776 61.056C258.024 67.872 258.936 74.784 259.512 81.792L260.808 99.936C260.904 100.704 261 101.424 261.096 102.096C261.192 102.768 261.288 103.488 261.384 104.256C261.384 105.024 260.952 105.504 260.088 105.696H258.36C257.304 105.696 256.632 105.264 256.344 104.4L255.48 101.376L252.456 87.12C252.36 86.544 251.976 86.256 251.304 86.256C250.536 86.256 249.816 86.256 249.144 86.256C248.472 86.256 247.752 86.304 246.984 86.4L234.888 88.128C234.504 88.128 234.216 88.176 234.024 88.272C233.352 88.464 233.016 88.848 233.016 89.424V92.016C233.016 94.608 232.968 97.2 232.872 99.792C232.776 102.384 232.632 104.976 232.439 107.568C232.344 108.816 231.672 109.584 230.424 109.872H229.992C229.8 109.872 229.608 109.872 229.416 109.872C229.32 109.968 229.176 110.016 228.984 110.016C227.255 110.016 226.343 109.008 226.247 106.992C226.151 105.936 226.151 104.928 226.247 103.968C226.247 103.008 226.247 102 226.247 100.944V94.896L225.959 94.608V88.992ZM233.016 82.512L233.16 82.8V83.952C233.352 84.432 233.64 84.624 234.024 84.528L249.576 81.936H250.008C250.872 81.648 251.256 81.024 251.16 80.064C251.064 79.488 250.968 78.912 250.872 78.336C250.776 77.76 250.68 77.184 250.584 76.608C249.144 68.928 247.848 61.392 246.695 54L244.536 40.608C244.44 40.128 244.296 39.648 244.104 39.168C244.008 38.592 243.864 38.064 243.672 37.584C243.576 37.392 243.336 37.2 242.952 37.008C242.856 37.008 242.664 37.152 242.376 37.44C240.36 40.8 238.824 44.592 237.768 48.816C236.808 52.944 235.992 56.88 235.32 60.624C234.648 64.272 234.168 67.92 233.88 71.568C233.592 75.12 233.304 78.768 233.016 82.512ZM266.058 47.664C266.442 47.568 266.778 47.52 267.066 47.52C267.354 47.424 267.69 47.376 268.074 47.376C268.266 47.376 268.506 47.424 268.794 47.52C269.082 47.52 269.322 47.52 269.514 47.52C270.282 47.616 270.858 48.048 271.242 48.816L273.402 52.272C273.69 52.752 273.93 53.184 274.122 53.568C274.41 53.952 274.698 54.384 274.986 54.864C275.754 55.92 276.234 56.448 276.426 56.448C276.714 56.448 277.146 55.824 277.722 54.576C278.49 53.136 279.21 51.696 279.882 50.256C280.65 48.816 281.418 47.376 282.186 45.936C282.858 44.688 283.722 43.392 284.778 42.048C285.93 40.608 287.274 39.888 288.81 39.888C289.578 39.888 290.154 39.936 290.538 40.032C290.73 40.032 290.874 40.128 290.97 40.32C291.162 40.512 291.21 40.704 291.114 40.896L290.25 43.056C288.81 46.32 287.466 49.584 286.218 52.848C284.97 56.112 283.722 59.424 282.474 62.784C281.898 64.128 282.042 65.28 282.906 66.24C284.826 68.544 286.554 71.088 288.09 73.872C289.722 76.656 291.066 79.44 292.122 82.224L294.282 87.408C294.474 87.792 294.666 88.176 294.858 88.56C295.146 88.848 295.386 89.184 295.578 89.568C295.962 90.144 296.298 90.768 296.586 91.44C296.874 92.016 296.778 92.64 296.298 93.312C295.818 93.888 295.05 94.176 293.994 94.176H292.698C291.642 94.176 290.826 93.648 290.25 92.592L286.794 86.112L280.314 74.88C280.122 74.592 279.93 74.352 279.738 74.16C279.546 73.872 279.354 73.584 279.162 73.296C279.162 73.104 279.018 73.008 278.73 73.008C278.634 73.008 278.49 73.104 278.298 73.296C278.106 73.776 277.914 74.304 277.722 74.88C277.53 75.36 277.338 75.84 277.146 76.32C275.994 79.68 274.89 83.04 273.834 86.4C272.778 89.664 271.77 92.976 270.81 96.336L270.378 98.064C270.186 98.832 269.946 99.36 269.658 99.648C269.37 99.84 268.842 99.936 268.074 99.936C267.594 99.936 267.114 99.792 266.634 99.504C266.346 99.312 266.106 98.976 265.914 98.496C265.722 98.112 265.674 97.584 265.77 96.912C265.866 96.144 266.01 95.376 266.202 94.608C266.394 93.744 266.634 92.928 266.922 92.16C267.114 91.296 267.258 90.624 267.354 90.144C269.082 82.08 271.098 74.208 273.402 66.528C273.882 65.28 273.738 64.224 272.97 63.36C271.338 61.248 269.802 58.992 268.362 56.592C267.018 54.096 265.962 51.6 265.194 49.104C265.002 48.336 265.29 47.856 266.058 47.664ZM315.411 54.144C316.467 54.144 317.331 54.288 318.003 54.576C318.771 54.768 319.251 55.488 319.443 56.736C319.443 57.312 319.491 57.696 319.587 57.888C319.875 58.368 320.163 58.848 320.451 59.328C320.835 59.808 321.171 60.288 321.459 60.768C321.651 61.152 321.843 61.824 322.035 62.784C322.227 64.608 322.227 66.48 322.035 68.4C321.939 70.224 321.651 72.048 321.171 73.872C320.883 75.216 320.355 76.704 319.587 78.336C318.819 79.872 317.859 81.312 316.707 82.656C315.651 83.904 314.451 84.96 313.107 85.824C311.763 86.688 310.275 87.12 308.643 87.12C305.859 87.12 303.507 86.112 301.587 84.096C299.763 82.08 298.851 79.728 298.851 77.04C298.851 74.832 299.187 72.384 299.859 69.696C300.627 67.008 301.683 64.512 303.027 62.208C304.467 59.904 306.195 57.984 308.211 56.448C310.323 54.912 312.723 54.144 315.411 54.144ZM306.195 79.92C306.291 80.688 306.531 81.696 306.915 82.944C307.395 84.192 308.163 84.816 309.219 84.816C309.987 84.816 310.755 84.384 311.523 83.52C312.291 82.56 313.011 81.504 313.683 80.352C314.355 79.104 314.931 77.904 315.411 76.752C315.891 75.504 316.179 74.592 316.275 74.016C316.563 72.384 316.803 70.608 316.995 68.688C317.283 66.672 317.331 64.992 317.139 63.648C317.043 63.072 316.803 62.256 316.419 61.2C316.131 60.144 315.603 59.616 314.835 59.616C314.451 59.616 314.115 59.76 313.827 60.048C311.619 62.544 309.987 65.184 308.931 67.968C307.971 70.656 307.107 73.584 306.339 76.752C306.051 77.712 306.003 78.768 306.195 79.92ZM328.148 58.32C329.204 50.544 330.26 42.816 331.316 35.136C332.372 27.456 333.812 19.728 335.636 11.952C335.636 11.856 335.636 11.808 335.636 11.808C335.732 11.712 335.78 11.616 335.78 11.52C336.548 9.312 337.748 8.208 339.38 8.208C340.052 8.208 340.676 8.352 341.252 8.63999C341.828 8.92799 342.356 9.264 342.836 9.648C343.412 10.128 343.988 10.656 344.564 11.232C344.276 12.96 343.94 14.688 343.556 16.416C343.268 18.144 342.98 19.872 342.692 21.6C342.404 23.328 342.116 25.056 341.828 26.784C341.54 28.512 341.3 30.24 341.108 31.968L339.38 45.36C338.42 52.848 337.556 60.336 336.788 67.824L335.924 74.736L334.196 95.04C334.1 96 334.1 97.056 334.196 98.208C334.388 99.264 334.292 100.032 333.908 100.512C333.62 100.896 332.9 101.184 331.748 101.376H330.884C329.924 101.376 329.156 100.944 328.58 100.08C328.1 99.216 327.716 98.208 327.428 97.056C327.14 95.904 326.948 94.752 326.852 93.6C326.756 92.352 326.708 91.392 326.708 90.72C326.708 89.472 326.612 88.272 326.42 87.12C326.324 85.872 326.276 84.624 326.276 83.376C326.372 79.248 326.564 75.12 326.852 70.992C327.236 66.768 327.668 62.544 328.148 58.32ZM361.676 54.144C362.732 54.144 363.596 54.288 364.268 54.576C365.036 54.768 365.516 55.488 365.708 56.736C365.708 57.312 365.756 57.696 365.852 57.888C366.14 58.368 366.428 58.848 366.716 59.328C367.1 59.808 367.436 60.288 367.724 60.768C367.916 61.152 368.108 61.824 368.3 62.784C368.492 64.608 368.492 66.48 368.3 68.4C368.204 70.224 367.916 72.048 367.436 73.872C367.148 75.216 366.62 76.704 365.852 78.336C365.084 79.872 364.124 81.312 362.972 82.656C361.916 83.904 360.716 84.96 359.372 85.824C358.028 86.688 356.54 87.12 354.908 87.12C352.124 87.12 349.772 86.112 347.852 84.096C346.028 82.08 345.116 79.728 345.116 77.04C345.116 74.832 345.452 72.384 346.124 69.696C346.892 67.008 347.948 64.512 349.292 62.208C350.732 59.904 352.46 57.984 354.476 56.448C356.588 54.912 358.988 54.144 361.676 54.144ZM352.46 79.92C352.556 80.688 352.796 81.696 353.18 82.944C353.66 84.192 354.428 84.816 355.484 84.816C356.252 84.816 357.02 84.384 357.788 83.52C358.556 82.56 359.276 81.504 359.948 80.352C360.62 79.104 361.196 77.904 361.676 76.752C362.156 75.504 362.444 74.592 362.54 74.016C362.828 72.384 363.068 70.608 363.26 68.688C363.548 66.672 363.596 64.992 363.404 63.648C363.308 63.072 363.068 62.256 362.684 61.2C362.396 60.144 361.868 59.616 361.1 59.616C360.716 59.616 360.38 59.76 360.092 60.048C357.884 62.544 356.252 65.184 355.196 67.968C354.236 70.656 353.372 73.584 352.604 76.752C352.316 77.712 352.268 78.768 352.46 79.92ZM365.485 56.592C365.965 56.4 366.397 56.256 366.781 56.16C367.165 56.064 367.597 55.968 368.077 55.872L371.533 55.008C372.301 54.912 372.685 54.48 372.685 53.712C372.781 52.368 372.877 51.024 372.973 49.68C373.069 48.24 373.117 46.848 373.117 45.504C373.117 42.624 373.213 39.84 373.405 37.152C373.693 34.368 374.221 31.584 374.989 28.8C375.085 28.032 375.661 27.552 376.717 27.36H377.149C378.493 27.36 379.405 27.552 379.885 27.936C380.461 28.224 380.749 29.088 380.749 30.528C380.749 33.504 380.749 36.432 380.749 39.312C380.749 42.096 380.701 44.976 380.605 47.952V52.704C380.605 53.568 380.941 54 381.613 54H382.189C382.573 53.904 382.909 53.808 383.197 53.712C383.581 53.616 383.965 53.52 384.349 53.424C385.789 53.232 387.229 53.04 388.669 52.848C390.109 52.656 391.501 52.32 392.845 51.84C393.421 51.648 393.853 51.552 394.141 51.552C394.429 51.552 394.861 51.648 395.437 51.84C396.205 52.224 396.301 52.704 395.725 53.28C394.573 54.336 393.133 55.008 391.405 55.296L383.197 56.592C382.621 56.592 382.189 56.64 381.901 56.736C381.037 56.832 380.605 57.312 380.605 58.176V61.2C380.605 65.136 380.461 69.024 380.173 72.864C379.981 76.704 379.981 80.592 380.173 84.528C380.365 87.6 380.461 90.72 380.461 93.888C380.557 96.96 380.701 100.032 380.893 103.104C380.989 104.64 381.085 106.176 381.181 107.712C381.277 109.248 381.565 110.784 382.045 112.32C382.237 113.088 381.901 113.472 381.037 113.472C379.789 113.472 378.877 113.328 378.301 113.04C377.725 112.752 377.245 111.984 376.861 110.736C376.381 109.104 375.997 107.472 375.709 105.84C375.421 104.208 375.181 102.576 374.989 100.944C374.221 94.896 373.645 88.944 373.261 83.088C372.877 77.136 372.685 71.136 372.685 65.088V61.2C372.685 60.72 372.733 60.192 372.829 59.616C372.925 59.04 372.781 58.512 372.397 58.032L369.229 58.464C368.653 58.56 368.077 58.656 367.501 58.752C366.925 58.752 366.349 58.752 365.773 58.752C365.005 58.752 364.525 58.512 364.333 58.032C364.141 57.36 364.525 56.88 365.485 56.592ZM393.679 58.32C394.735 50.544 395.791 42.816 396.847 35.136C397.903 27.456 399.343 19.728 401.167 11.952C401.167 11.856 401.167 11.808 401.167 11.808C401.263 11.712 401.311 11.616 401.311 11.52C402.079 9.312 403.279 8.208 404.911 8.208C405.583 8.208 406.207 8.352 406.783 8.63999C407.359 8.92799 407.887 9.264 408.367 9.648C408.943 10.128 409.519 10.656 410.095 11.232C409.807 12.96 409.471 14.688 409.087 16.416C408.799 18.144 408.511 19.872 408.223 21.6C407.935 23.328 407.647 25.056 407.359 26.784C407.071 28.512 406.831 30.24 406.639 31.968L404.911 45.36C403.951 52.848 403.087 60.336 402.319 67.824L401.455 74.736L399.727 95.04C399.631 96 399.631 97.056 399.727 98.208C399.919 99.264 399.823 100.032 399.439 100.512C399.151 100.896 398.431 101.184 397.279 101.376H396.415C395.455 101.376 394.687 100.944 394.111 100.08C393.631 99.216 393.247 98.208 392.959 97.056C392.671 95.904 392.479 94.752 392.383 93.6C392.287 92.352 392.239 91.392 392.239 90.72C392.239 89.472 392.143 88.272 391.951 87.12C391.855 85.872 391.807 84.624 391.807 83.376C391.903 79.248 392.095 75.12 392.383 70.992C392.767 66.768 393.199 62.544 393.679 58.32Z" fill="url(#paint0_linear)"/>
<defs>
<linearGradient id="paint0_linear" x1="1" y1="33.5784" x2="411.025" y2="30.3489" gradientUnits="userSpaceOnUse">
<stop stop-color="#E7A99F"/>
<stop offset="0.604167" stop-color="#CED7C0"/>
<stop offset="1" stop-color="#799561"/>
</linearGradient>
</defs>
</svg>
