<svg width="425" height="73" viewBox="0 0 425 73" fill="none" xmlns="http://www.w3.org/2000/svg">
<g filter="url(#filter0_d)">
<path d="M10.56 12.608C10.432 13.952 10.24 15.808 9.984 18.176C9.728 20.48 9.408 23.68 9.024 27.776C8.704 31.872 8.288 37.024 7.776 43.232C7.264 49.44 6.72 57.152 6.144 66.368C6.016 66.56 5.696 66.752 5.184 66.944C4.672 67.136 4.096 67.264 3.456 67.328C2.88 67.392 2.336 67.36 1.824 67.232C1.312 67.104 1.024 66.848 0.96 66.464C0.832 65.696 0.864 64.48 1.056 62.816C1.312 61.088 1.504 59.328 1.632 57.536C1.696 57.088 1.792 56.064 1.92 54.464C2.112 52.8 2.336 50.784 2.592 48.416C2.848 46.048 3.136 43.392 3.456 40.448C3.84 37.504 4.192 34.528 4.512 31.52C4.896 28.512 5.248 25.568 5.568 22.688C5.888 19.744 6.176 17.12 6.432 14.816C6.688 12.448 6.912 10.496 7.104 8.96C7.296 7.424 7.424 6.49599 7.488 6.17599C7.552 5.408 7.904 4.864 8.544 4.544C9.248 4.224 9.984 4.096 10.752 4.16C11.584 4.16 12.352 4.32 13.056 4.64C13.76 4.896 14.208 5.248 14.4 5.696C14.784 6.656 15.232 8.096 15.744 10.016C16.32 11.936 16.96 14.112 17.664 16.544C18.368 18.912 19.072 21.408 19.776 24.032C20.48 26.656 21.152 29.152 21.792 31.52C22.496 33.824 23.104 35.872 23.616 37.664C24.128 39.456 24.512 40.736 24.768 41.504C24.96 42.08 25.12 42.432 25.248 42.56C25.44 42.624 25.568 42.592 25.632 42.464C25.76 42.336 25.856 42.176 25.92 41.984C25.984 41.728 26.016 41.6 26.016 41.6C26.272 40.896 26.656 39.68 27.168 37.952C27.744 36.16 28.384 34.144 29.088 31.904C29.792 29.6 30.496 27.168 31.2 24.608C31.968 21.984 32.704 19.488 33.408 17.12C34.112 14.688 34.752 12.512 35.328 10.592C35.904 8.672 36.352 7.2 36.672 6.17599C36.992 5.152 37.536 4.448 38.304 4.064C39.072 3.616 39.872 3.456 40.704 3.584C41.536 3.712 42.272 4.064 42.912 4.64C43.552 5.152 43.936 5.792 44.064 6.56C44.064 6.816 44.16 8.032 44.352 10.208C44.544 12.384 44.736 15.104 44.928 18.368C45.12 21.568 45.344 25.056 45.6 28.832C45.856 32.608 46.112 36.224 46.368 39.68C46.624 43.072 46.816 46.08 46.944 48.704C47.072 51.328 47.168 53.088 47.232 53.984C47.296 56.672 47.424 58.912 47.616 60.704C47.808 62.496 47.936 63.808 48 64.64C48 65.024 47.744 65.472 47.232 65.984C46.784 66.432 46.272 66.752 45.696 66.944C45.12 67.072 44.576 66.944 44.064 66.56C43.616 66.176 43.424 65.344 43.488 64.064L40.512 12.416C40.384 12.288 40.192 12.096 39.936 11.84C39.68 11.584 39.456 11.84 39.264 12.608C38.944 13.76 38.432 15.456 37.728 17.696C37.088 19.872 36.352 22.304 35.52 24.992C34.752 27.68 33.92 30.432 33.024 33.248C32.192 36.064 31.392 38.656 30.624 41.024C29.856 43.392 29.152 45.376 28.512 46.976C27.872 48.512 27.424 49.344 27.168 49.472C26.592 49.792 25.824 49.92 24.864 49.856C23.968 49.792 23.328 49.504 22.944 48.992C22.816 48.8 22.496 47.904 21.984 46.304C21.472 44.704 20.832 42.688 20.064 40.256C19.36 37.824 18.592 35.2 17.76 32.384C16.928 29.504 16.096 26.752 15.264 24.128C14.496 21.44 13.792 19.04 13.152 16.928C12.512 14.816 12 13.312 11.616 12.416C11.488 12.288 11.296 12.16 11.04 12.032C10.848 11.84 10.688 12.032 10.56 12.608ZM53.5628 12.512C53.4348 12.64 53.3388 13.824 53.2748 16.064C53.2748 18.24 53.2748 20.96 53.2748 24.224C53.2748 27.424 53.2748 30.912 53.2748 34.688C53.3388 38.464 53.3708 42.016 53.3708 45.344C53.4348 48.672 53.4668 51.488 53.4668 53.792C53.5308 56.096 53.5628 57.408 53.5628 57.728C53.5628 58.24 53.5308 58.912 53.4668 59.744C53.4028 60.512 53.3388 61.376 53.2748 62.336C53.2748 63.232 53.2748 64.128 53.2748 65.024C53.3388 65.856 53.4348 66.56 53.5628 67.136C53.8828 68.288 54.4588 68.736 55.2908 68.48C56.1228 68.288 56.6988 67.84 57.0188 67.136C57.0828 66.88 57.1788 65.728 57.3068 63.68C57.4348 61.568 57.5308 58.976 57.5948 55.904C57.7228 52.768 57.8188 49.408 57.8828 45.824C58.0108 42.24 58.1068 38.816 58.1708 35.552C58.2988 32.288 58.3948 29.44 58.4588 27.008C58.5228 24.576 58.5868 22.976 58.6508 22.208C58.7148 21.056 58.8108 19.968 58.9388 18.944C59.0668 17.92 59.1308 16.992 59.1308 16.16C59.1948 15.264 59.1948 14.528 59.1308 13.952C59.0668 13.312 58.9068 12.832 58.6508 12.512C58.3308 12.256 57.9148 12.064 57.4028 11.936C56.8908 11.808 56.3788 11.744 55.8668 11.744C55.3548 11.744 54.8748 11.84 54.4268 12.032C53.9788 12.16 53.6908 12.32 53.5628 12.512ZM53.4668 4.64C53.5308 4.256 53.8828 3.968 54.5228 3.776C55.1628 3.52 55.8348 3.392 56.5388 3.392C57.2428 3.328 57.8828 3.424 58.4588 3.68C59.0988 3.872 59.4188 4.192 59.4188 4.64C59.4188 5.088 59.4188 5.43999 59.4188 5.696C59.4188 5.952 59.3868 6.176 59.3228 6.368C59.3228 6.56 59.2908 6.78399 59.2268 7.04C59.1628 7.296 59.0988 7.616 59.0348 8C58.9068 8.384 58.5548 8.672 57.9788 8.86399C57.4028 9.056 56.7628 9.152 56.0588 9.152C55.4188 9.152 54.8108 9.088 54.2348 8.96C53.7228 8.832 53.4668 8.608 53.4668 8.288C53.4668 7.712 53.4348 7.168 53.3708 6.65599C53.3068 6.144 53.3388 5.472 53.4668 4.64ZM70.3898 67.232C68.4698 66.848 67.2218 66.08 66.6458 64.928C66.1338 63.776 65.9738 62.528 66.1658 61.184C66.3578 59.84 66.7098 58.528 67.2218 57.248C67.7338 55.904 68.0538 54.912 68.1818 54.272C67.0298 53.248 66.3898 52.288 66.2617 51.392C66.1978 50.432 66.2938 49.6 66.5498 48.896C66.8698 48.128 67.2218 47.52 67.6058 47.072C68.0538 46.624 68.2138 46.336 68.0858 46.208C66.9338 44.992 65.9738 43.296 65.2058 41.12C64.5018 38.944 63.9578 36.544 63.5738 33.92C63.2538 31.296 63.0938 28.576 63.0938 25.76C63.0938 22.944 63.2538 20.288 63.5738 17.792C63.9578 15.296 64.4698 13.12 65.1098 11.264C65.8138 9.408 66.6458 8.096 67.6058 7.328C68.9498 6.24 70.7418 5.344 72.9818 4.64C75.2858 3.936 77.6858 3.52 80.1818 3.392C82.7418 3.2 85.2058 3.39199 87.5738 3.96799C90.0058 4.48 91.9898 5.472 93.5258 6.944C93.7178 7.136 93.9738 7.072 94.2938 6.752C94.6778 6.432 95.0298 6.048 95.3498 5.6C95.7338 5.152 96.0538 4.736 96.3098 4.352C96.6298 3.904 96.8538 3.68 96.9818 3.68C97.1738 3.68 97.4618 3.808 97.8458 4.064C98.2938 4.32 98.7418 4.64 99.1898 5.024C99.6378 5.408 100.022 5.824 100.342 6.272C100.726 6.72 100.918 7.072 100.918 7.328C100.918 7.52 100.694 7.776 100.246 8.096C99.7978 8.416 99.3178 8.736 98.8058 9.056C98.2938 9.376 97.7818 9.696 97.2698 10.016C96.8218 10.336 96.5658 10.624 96.5018 10.88C96.4378 11.008 96.4698 11.712 96.5978 12.992C96.7258 14.272 96.8858 15.904 97.0778 17.888C97.2698 19.808 97.4298 21.952 97.5578 24.32C97.6858 26.688 97.7178 29.056 97.6538 31.424C97.5898 33.792 97.3338 36.032 96.8858 38.144C96.5018 40.192 95.8618 41.888 94.9658 43.232C93.8138 44.896 92.3098 46.176 90.4538 47.072C88.5978 47.904 86.6458 48.48 84.5978 48.8C82.5498 49.12 80.5658 49.28 78.6458 49.28C76.7257 49.216 75.1258 49.12 73.8458 48.992C72.8858 50.144 72.6298 50.944 73.0778 51.392C73.5258 51.776 74.3898 51.968 75.6698 51.968C77.0138 51.968 78.5818 51.872 80.3738 51.68C82.2298 51.424 84.0538 51.264 85.8458 51.2C87.6378 51.136 89.2698 51.232 90.7418 51.488C92.2138 51.68 93.2378 52.224 93.8138 53.12C94.2618 53.888 94.6138 54.912 94.8698 56.192C95.1258 57.472 95.2218 58.784 95.1578 60.128C95.1578 61.472 94.9658 62.688 94.5818 63.776C94.2618 64.864 93.6858 65.568 92.8538 65.888C91.3818 66.464 89.5898 66.912 87.4778 67.232C85.3658 67.488 83.1898 67.648 80.9498 67.712C78.7738 67.776 76.7258 67.776 74.8058 67.712C72.8858 67.584 71.4138 67.424 70.3898 67.232ZM71.4458 11.072C70.5498 12.16 69.8138 13.6 69.2378 15.392C68.7258 17.184 68.3418 19.136 68.0858 21.248C67.8298 23.36 67.7338 25.536 67.7978 27.776C67.8618 30.016 68.0538 32.128 68.3738 34.112C68.6938 36.032 69.1098 37.76 69.6218 39.296C70.1978 40.832 70.9018 41.92 71.7338 42.56C72.8218 43.456 74.2618 44.064 76.0538 44.384C77.8458 44.64 79.7018 44.64 81.6218 44.384C83.6058 44.064 85.4618 43.488 87.1898 42.656C88.9818 41.824 90.4218 40.736 91.5098 39.392C91.8298 38.944 92.1178 38.016 92.3738 36.608C92.6938 35.2 92.9178 33.536 93.0458 31.616C93.1738 29.696 93.2058 27.648 93.1418 25.472C93.1418 23.232 93.0138 21.12 92.7578 19.136C92.5658 17.152 92.2138 15.392 91.7018 13.856C91.2538 12.256 90.6778 11.136 89.9738 10.496C88.8858 9.536 87.4458 8.864 85.6538 8.48C83.8618 8.032 82.0378 7.872 80.1818 8C78.3258 8.064 76.5978 8.352 74.9978 8.86399C73.3978 9.376 72.2138 10.112 71.4458 11.072ZM72.5018 57.248C71.5418 58.08 70.9658 59.136 70.7738 60.416C70.6458 61.632 71.0298 62.4 71.9258 62.72C72.6938 62.976 73.9098 63.136 75.5738 63.2C77.2378 63.264 78.9658 63.264 80.7578 63.2C82.6138 63.072 84.3098 62.912 85.8458 62.72C87.4458 62.464 88.5338 62.176 89.1098 61.856C89.6858 61.472 90.1018 61.024 90.3578 60.512C90.6138 59.936 90.7418 59.36 90.7418 58.784C90.8058 58.208 90.7418 57.728 90.5498 57.344C90.3578 56.896 90.0698 56.608 89.6858 56.48C89.1738 56.352 88.0858 56.224 86.4218 56.096C84.7578 55.968 82.9658 55.936 81.0458 56C79.1898 56 77.4298 56.096 75.7657 56.288C74.1018 56.48 73.0138 56.8 72.5018 57.248ZM102.67 3.392C102.734 2.62399 103.022 2.112 103.534 1.856C104.046 1.536 104.622 1.408 105.262 1.472C105.902 1.536 106.478 1.76 106.99 2.144C107.502 2.46399 107.758 2.88 107.758 3.392C107.758 3.776 107.726 4.512 107.662 5.6C107.662 6.688 107.63 7.968 107.566 9.44C107.502 10.848 107.438 12.352 107.374 13.952C107.374 15.488 107.374 16.928 107.374 18.272C107.438 19.552 107.502 20.64 107.566 21.536C107.63 22.368 107.758 22.784 107.95 22.784C108.206 22.784 109.102 22.656 110.638 22.4C112.238 22.144 114.062 22.016 116.11 22.016C118.222 22.016 120.366 22.304 122.542 22.88C124.782 23.392 126.67 24.448 128.206 26.048C129.102 27.008 129.774 28.576 130.222 30.752C130.67 32.928 130.958 35.424 131.086 38.24C131.278 41.056 131.342 43.968 131.278 46.976C131.214 49.984 131.086 52.8 130.894 55.424C130.766 58.048 130.606 60.288 130.414 62.144C130.222 63.936 130.126 64.992 130.126 65.312C130.062 65.824 129.742 66.24 129.166 66.56C128.654 66.816 128.078 66.944 127.438 66.944C126.862 66.88 126.318 66.688 125.806 66.368C125.358 66.048 125.198 65.536 125.326 64.832C125.39 64.384 125.518 63.328 125.71 61.664C125.902 59.936 126.094 57.92 126.286 55.616C126.542 53.248 126.702 50.72 126.766 48.032C126.894 45.344 126.894 42.784 126.766 40.352C126.702 37.92 126.478 35.744 126.094 33.824C125.71 31.84 125.102 30.464 124.27 29.696C123.118 28.608 121.646 27.872 119.854 27.488C118.126 27.04 116.398 26.848 114.67 26.912C113.006 26.976 111.502 27.232 110.158 27.68C108.878 28.128 108.142 28.64 107.95 29.216C107.822 29.6 107.726 30.688 107.662 32.48C107.598 34.272 107.534 36.448 107.47 39.008C107.47 41.504 107.47 44.192 107.47 47.072C107.534 49.952 107.566 52.672 107.566 55.232C107.63 57.792 107.662 60.032 107.662 61.952C107.662 63.808 107.63 64.992 107.566 65.504C107.502 66.272 107.214 66.944 106.702 67.52C106.19 68.096 105.646 68.448 105.07 68.576C104.494 68.768 103.95 68.672 103.438 68.288C102.99 67.968 102.766 67.296 102.766 66.272C102.766 65.76 102.734 64.512 102.67 62.528C102.67 60.544 102.67 58.08 102.67 55.136C102.67 52.192 102.67 48.928 102.67 45.344C102.67 41.76 102.638 38.112 102.574 34.4C102.574 30.688 102.574 27.072 102.574 23.552C102.574 19.968 102.574 16.768 102.574 13.952C102.574 11.072 102.574 8.704 102.574 6.848C102.638 4.928 102.67 3.776 102.67 3.392ZM144.02 4.16C143.956 3.52 144.212 3.008 144.788 2.62399C145.428 2.24 146.1 2.016 146.804 1.952C147.572 1.888 148.276 2.048 148.916 2.432C149.556 2.752 149.876 3.328 149.876 4.16C149.876 4.736 149.812 6.08 149.684 8.192C149.62 10.304 149.492 12.8 149.299 15.68C149.172 18.496 149.044 21.504 148.916 24.704C148.788 27.904 148.66 30.88 148.532 33.632C148.468 36.32 148.436 38.592 148.436 40.448C148.436 42.24 148.5 43.168 148.628 43.232C148.82 43.36 149.172 43.456 149.684 43.52C150.26 43.52 150.9 43.52 151.604 43.52C152.308 43.456 153.044 43.392 153.812 43.328C154.58 43.264 155.316 43.2 156.02 43.136C156.66 43.072 157.14 43.296 157.46 43.808C157.78 44.32 157.94 44.896 157.94 45.536C158.004 46.176 157.94 46.784 157.748 47.36C157.556 47.936 157.3 48.224 156.98 48.224C156.596 48.224 155.956 48.224 155.06 48.224C154.228 48.16 153.364 48.128 152.468 48.128C151.572 48.128 150.74 48.192 149.972 48.32C149.268 48.448 148.852 48.704 148.724 49.088C148.596 49.344 148.5 50.016 148.436 51.104C148.372 52.192 148.34 53.408 148.34 54.752C148.404 56.032 148.5 57.28 148.628 58.496C148.82 59.712 149.076 60.544 149.396 60.992C150.1 61.952 150.996 62.496 152.084 62.624C153.236 62.688 154.356 62.688 155.444 62.624C156.02 62.624 156.436 62.88 156.692 63.392C156.948 63.904 157.076 64.48 157.076 65.12C157.076 65.76 156.884 66.368 156.5 66.944C156.18 67.52 155.7 67.808 155.06 67.808C154.356 67.808 153.556 67.808 152.66 67.808C151.764 67.808 150.836 67.712 149.876 67.52C148.98 67.264 148.084 66.816 147.188 66.176C146.356 65.536 145.652 64.608 145.076 63.392C144.5 62.176 144.148 60.768 144.02 59.168C143.892 57.568 143.828 56.032 143.828 54.56C143.892 53.088 143.956 51.808 144.02 50.72C144.084 49.632 144.02 48.992 143.828 48.8C143.636 48.608 143.284 48.48 142.772 48.416C142.26 48.288 141.652 48.224 140.948 48.224C140.308 48.224 139.636 48.256 138.932 48.32C138.228 48.32 137.556 48.32 136.916 48.32C136.276 48.32 135.828 48.128 135.572 47.744C135.316 47.296 135.188 46.816 135.188 46.304C135.188 45.792 135.316 45.312 135.572 44.864C135.828 44.352 136.18 44.032 136.628 43.904C137.076 43.776 137.652 43.744 138.355 43.808C139.06 43.808 139.764 43.808 140.468 43.808C141.172 43.808 141.78 43.776 142.292 43.712C142.868 43.648 143.22 43.424 143.348 43.04C143.412 42.784 143.476 41.728 143.54 39.872C143.668 37.952 143.732 35.616 143.732 32.864C143.796 30.112 143.86 27.168 143.924 24.032C143.988 20.832 144.02 17.824 144.02 15.008C144.084 12.192 144.084 9.792 144.02 7.808C144.02 5.824 144.02 4.608 144.02 4.16ZM156 6.56C155.744 5.792 155.776 5.088 156.096 4.44799C156.48 3.80799 156.96 3.328 157.536 3.008C158.176 2.688 158.816 2.592 159.456 2.72C160.16 2.784 160.672 3.168 160.992 3.872C161.184 4.384 161.6 5.696 162.24 7.808C162.944 9.856 163.712 12.32 164.544 15.2C165.44 18.08 166.336 21.12 167.232 24.32C168.192 27.52 169.056 30.464 169.824 33.152C170.656 35.84 171.328 38.08 171.84 39.872C172.352 41.6 172.608 42.464 172.608 42.464C172.608 42.464 172.864 41.6 173.376 39.872C173.952 38.144 174.656 35.968 175.488 33.344C176.32 30.72 177.216 27.84 178.176 24.704C179.2 21.504 180.16 18.464 181.056 15.584C182.016 12.704 182.816 10.144 183.456 7.904C184.16 5.664 184.64 4.16 184.896 3.392C185.216 2.24 185.696 1.472 186.336 1.088C186.976 0.703999 187.552 0.671999 188.064 0.991999C188.64 1.248 189.088 1.792 189.408 2.62399C189.792 3.392 189.856 4.352 189.6 5.504C189.408 6.272 188.896 7.83999 188.064 10.208C187.296 12.576 186.368 15.36 185.28 18.56C184.192 21.696 183.008 24.992 181.728 28.448C180.448 31.904 179.296 35.104 178.272 38.048C177.248 40.992 176.384 43.456 175.68 45.44C174.976 47.424 174.656 48.512 174.72 48.704C174.784 48.96 174.816 49.888 174.816 51.488C174.88 53.024 174.944 54.72 175.008 56.576C175.072 58.432 175.104 60.224 175.104 61.952C175.168 63.616 175.2 64.736 175.2 65.312C175.2 65.888 174.944 66.4 174.432 66.848C173.984 67.232 173.472 67.488 172.896 67.616C172.32 67.68 171.776 67.552 171.264 67.232C170.752 66.848 170.464 66.144 170.4 65.12C170.336 64.096 170.304 62.752 170.304 61.088C170.304 59.36 170.304 57.664 170.304 56C170.304 54.336 170.304 52.864 170.304 51.584C170.368 50.24 170.4 49.472 170.4 49.28C170.4 49.152 170.048 48.096 169.344 46.112C168.704 44.064 167.872 41.536 166.848 38.528C165.888 35.52 164.8 32.256 163.584 28.736C162.368 25.216 161.216 21.92 160.128 18.848C159.104 15.712 158.208 13.024 157.44 10.784C156.672 8.48 156.192 7.072 156 6.56ZM232.245 3.10399C232.629 3.10399 233.013 3.168 233.397 3.296C233.845 3.36 234.229 3.552 234.549 3.872C234.933 4.192 235.253 4.672 235.509 5.31199C235.765 5.952 235.893 6.848 235.893 8C235.893 8.576 236.053 9.76 236.373 11.552C236.693 13.344 237.109 15.52 237.621 18.08C238.133 20.576 238.709 23.36 239.349 26.432C240.053 29.504 240.757 32.608 241.461 35.744C242.165 38.88 242.869 41.952 243.573 44.96C244.277 47.904 244.885 50.56 245.397 52.928C245.973 55.232 246.421 57.152 246.741 58.688C247.061 60.16 247.253 60.992 247.317 61.184C247.381 61.568 247.445 61.984 247.509 62.432C247.637 62.816 247.669 63.232 247.605 63.68C247.541 64.064 247.413 64.448 247.221 64.832C247.029 65.216 246.677 65.504 246.165 65.696C245.653 65.888 245.173 65.92 244.725 65.792C244.277 65.6 243.861 65.312 243.477 64.928C243.093 64.544 242.741 64.096 242.421 63.584C242.165 63.072 241.973 62.56 241.845 62.048C241.781 61.856 241.685 61.376 241.557 60.608C241.429 59.776 241.269 58.784 241.077 57.632C240.885 56.416 240.661 55.04 240.405 53.504C240.149 51.968 239.893 50.4 239.637 48.8C239.637 48.736 239.349 48.704 238.773 48.704C238.197 48.704 237.461 48.736 236.565 48.8C235.669 48.8 234.645 48.864 233.493 48.992C232.341 49.12 231.189 49.216 230.037 49.28C227.605 49.472 225.397 49.664 223.413 49.856C221.493 50.048 220.501 50.304 220.437 50.624C219.669 53.696 219.093 55.968 218.709 57.44C218.325 58.848 218.101 59.616 218.037 59.744C217.845 60.32 217.557 61.12 217.173 62.144C216.853 63.104 216.437 64.032 215.925 64.928C215.413 65.824 214.805 66.56 214.101 67.136C213.461 67.712 212.757 67.904 211.989 67.712C211.477 67.584 211.157 67.232 211.029 66.656C210.901 66.016 210.933 65.216 211.125 64.256C211.253 63.296 211.477 62.24 211.797 61.088C212.181 59.936 212.629 58.752 213.141 57.536C213.397 56.96 213.973 55.36 214.869 52.736C215.765 50.112 216.821 47.008 218.037 43.424C219.253 39.84 220.533 36.032 221.877 32C223.221 27.968 224.469 24.224 225.621 20.768C226.837 17.248 227.829 14.272 228.597 11.84C229.365 9.408 229.813 8.032 229.941 7.712C230.261 6.688 230.549 5.664 230.805 4.64C231.061 3.616 231.541 3.10399 232.245 3.10399ZM222.261 44.576C222.133 44.768 222.293 44.928 222.741 45.056C223.189 45.12 223.797 45.152 224.565 45.152C225.333 45.088 226.229 45.024 227.253 44.96C228.277 44.896 229.333 44.8 230.421 44.672C232.661 44.48 234.613 44.32 236.277 44.192C237.941 44 238.709 43.776 238.581 43.52C238.005 40.256 237.397 37.056 236.757 33.92C236.181 30.72 235.605 27.872 235.029 25.376C234.453 22.88 233.909 20.864 233.397 19.328C232.885 17.728 232.469 16.928 232.149 16.928C231.765 16.928 231.189 17.792 230.421 19.52C229.717 21.248 228.885 23.456 227.925 26.144C227.029 28.768 226.069 31.712 225.045 34.976C224.085 38.24 223.157 41.44 222.261 44.576ZM251.325 64.64C251.837 63.936 252.605 62.656 253.629 60.8C254.653 58.944 255.677 56.992 256.701 54.944C257.725 52.896 258.621 51.04 259.389 49.376C260.157 47.648 260.573 46.624 260.637 46.304C260.637 46.112 260.253 45.024 259.485 43.04C258.781 40.992 257.853 38.528 256.701 35.648C255.549 32.768 254.269 29.664 252.861 26.336C251.517 22.944 250.237 19.776 249.021 16.832C247.805 13.888 246.749 11.36 245.853 9.248C244.957 7.136 244.413 5.888 244.221 5.504C243.901 4.928 243.869 4.288 244.125 3.584C244.445 2.816 244.861 2.24 245.373 1.856C245.949 1.408 246.557 1.216 247.197 1.27999C247.837 1.344 248.381 1.856 248.829 2.816C249.149 3.456 249.693 4.832 250.461 6.944C251.293 9.056 252.189 11.52 253.149 14.336C254.173 17.152 255.261 20.128 256.413 23.264C257.565 26.336 258.589 29.184 259.485 31.808C260.445 34.368 261.245 36.512 261.885 38.24C262.589 39.968 263.005 40.832 263.133 40.832C263.325 40.896 263.805 40.096 264.573 38.432C265.341 36.768 266.269 34.656 267.357 32.096C268.445 29.536 269.597 26.752 270.813 23.744C272.093 20.672 273.309 17.76 274.461 15.008C275.613 12.192 276.605 9.76 277.437 7.712C278.333 5.6 278.973 4.256 279.357 3.68C279.869 2.784 280.477 2.272 281.181 2.144C281.885 2.016 282.493 2.144 283.005 2.528C283.581 2.91199 283.965 3.488 284.157 4.256C284.349 4.96 284.221 5.72799 283.773 6.56C283.453 7.136 282.813 8.48 281.853 10.592C280.957 12.704 279.869 15.2 278.589 18.08C277.373 20.896 276.029 23.904 274.557 27.104C273.149 30.304 271.837 33.28 270.621 36.032C269.405 38.72 268.349 40.992 267.453 42.848C266.557 44.704 265.981 45.696 265.725 45.824C265.597 45.952 265.757 46.688 266.205 48.032C266.717 49.376 267.357 50.976 268.125 52.832C268.893 54.624 269.661 56.448 270.429 58.304C271.261 60.16 271.901 61.6 272.349 62.624C272.797 63.712 272.925 64.704 272.733 65.6C272.605 66.496 272.317 67.2 271.869 67.712C271.485 68.16 270.973 68.352 270.333 68.288C269.757 68.224 269.277 67.776 268.893 66.944C268.509 66.112 267.997 64.864 267.357 63.2C266.781 61.536 266.173 59.872 265.533 58.208C264.957 56.544 264.413 55.104 263.901 53.888C263.453 52.608 263.133 51.968 262.941 51.968C262.749 51.968 262.461 52.32 262.077 53.024C261.757 53.664 261.341 54.528 260.829 55.616C260.381 56.704 259.901 57.92 259.389 59.264C258.877 60.608 258.365 61.888 257.853 63.104C257.405 64.256 256.957 65.312 256.509 66.272C256.125 67.168 255.837 67.744 255.645 68C255.325 68.448 254.813 68.64 254.109 68.576C253.469 68.576 252.861 68.384 252.285 68C251.709 67.68 251.261 67.232 250.941 66.656C250.685 66.016 250.813 65.344 251.325 64.64ZM288.131 6.848C289.795 5.568 291.619 4.672 293.603 4.16C295.587 3.584 297.603 3.36 299.651 3.488C301.699 3.616 303.715 4.096 305.699 4.928C307.683 5.76 309.507 6.88 311.171 8.288C312.771 9.632 313.923 11.776 314.627 14.72C315.395 17.6 315.811 20.864 315.875 24.512C316.003 28.096 315.811 31.872 315.299 35.84C314.851 39.808 314.243 43.584 313.475 47.168C312.707 50.688 311.811 53.792 310.786 56.48C309.827 59.168 308.867 61.024 307.906 62.048C306.755 63.328 305.379 64.448 303.779 65.408C302.243 66.304 300.579 66.912 298.787 67.232C297.059 67.552 295.267 67.52 293.411 67.136C291.619 66.752 289.859 65.856 288.131 64.448C287.171 63.616 286.339 62.24 285.635 60.32C284.931 58.4 284.355 56.128 283.907 53.504C283.459 50.816 283.139 47.904 282.947 44.768C282.755 41.632 282.659 38.464 282.659 35.264C282.723 32 282.883 28.8 283.139 25.664C283.395 22.528 283.747 19.68 284.195 17.12C284.707 14.56 285.283 12.384 285.923 10.592C286.563 8.736 287.299 7.488 288.131 6.848ZM291.491 10.592C290.531 11.616 289.731 13.504 289.091 16.256C288.451 18.944 287.971 22.048 287.651 25.568C287.395 29.088 287.267 32.8 287.267 36.704C287.267 40.608 287.427 44.256 287.747 47.648C288.067 50.976 288.515 53.856 289.091 56.288C289.667 58.72 290.403 60.224 291.299 60.8C293.539 62.272 295.875 62.88 298.307 62.624C300.803 62.368 302.947 60.928 304.739 58.304C305.315 57.472 305.987 55.936 306.755 53.696C307.523 51.456 308.227 48.832 308.867 45.824C309.571 42.816 310.147 39.616 310.595 36.224C311.043 32.768 311.235 29.44 311.171 26.24C311.107 23.04 310.691 20.128 309.923 17.504C309.219 14.816 308.003 12.768 306.275 11.36C305.123 10.4 303.875 9.664 302.531 9.152C301.187 8.64 299.811 8.352 298.403 8.288C297.059 8.16 295.779 8.288 294.562 8.672C293.347 9.056 292.323 9.696 291.491 10.592ZM320.489 5.696C320.617 5.504 320.905 5.248 321.353 4.928C321.801 4.608 322.281 4.384 322.793 4.256C323.369 4.128 323.881 4.16 324.329 4.352C324.841 4.544 325.161 4.992 325.289 5.696C325.353 6.08 325.353 7.136 325.289 8.86399C325.225 10.592 325.129 12.768 325.001 15.392C324.937 18.016 324.809 20.96 324.617 24.224C324.425 27.424 324.233 30.688 324.041 34.016C323.913 37.344 323.753 40.608 323.561 43.808C323.433 47.008 323.337 49.888 323.273 52.448C323.209 55.008 323.209 57.12 323.273 58.784C323.337 60.384 323.465 61.28 323.657 61.472C323.913 61.792 324.489 61.952 325.385 61.952C326.345 61.952 327.433 61.92 328.649 61.856C329.929 61.728 331.241 61.6 332.585 61.472C333.993 61.28 335.273 61.152 336.425 61.088C337.641 60.96 338.633 60.96 339.401 61.088C340.169 61.152 340.585 61.376 340.649 61.76C340.777 62.912 340.841 63.84 340.841 64.544C340.841 65.184 340.489 65.504 339.785 65.504C339.529 65.504 338.889 65.568 337.865 65.696C336.841 65.824 335.593 65.984 334.121 66.176C332.713 66.368 331.177 66.56 329.513 66.752C327.913 66.944 326.377 67.104 324.905 67.232C323.497 67.296 322.281 67.328 321.257 67.328C320.297 67.328 319.753 67.2 319.625 66.944C319.497 66.752 319.401 65.76 319.337 63.968C319.337 62.112 319.337 59.776 319.337 56.96C319.337 54.08 319.337 50.848 319.337 47.264C319.401 43.616 319.465 39.904 319.529 36.128C319.593 32.352 319.657 28.672 319.721 25.088C319.785 21.504 319.849 18.304 319.913 15.488C320.041 12.608 320.137 10.304 320.201 8.576C320.329 6.784 320.425 5.824 320.489 5.696ZM349.537 6.848C351.201 5.568 353.025 4.672 355.009 4.16C356.993 3.584 359.009 3.36 361.057 3.488C363.105 3.616 365.121 4.096 367.105 4.928C369.089 5.76 370.913 6.88 372.577 8.288C374.177 9.632 375.329 11.776 376.033 14.72C376.801 17.6 377.217 20.864 377.281 24.512C377.409 28.096 377.217 31.872 376.705 35.84C376.257 39.808 375.649 43.584 374.881 47.168C374.113 50.688 373.217 53.792 372.193 56.48C371.233 59.168 370.273 61.024 369.313 62.048C368.161 63.328 366.785 64.448 365.185 65.408C363.649 66.304 361.985 66.912 360.193 67.232C358.465 67.552 356.673 67.52 354.817 67.136C353.025 66.752 351.265 65.856 349.537 64.448C348.577 63.616 347.745 62.24 347.041 60.32C346.337 58.4 345.761 56.128 345.313 53.504C344.865 50.816 344.545 47.904 344.353 44.768C344.161 41.632 344.065 38.464 344.065 35.264C344.129 32 344.289 28.8 344.545 25.664C344.801 22.528 345.153 19.68 345.601 17.12C346.113 14.56 346.689 12.384 347.329 10.592C347.969 8.736 348.705 7.488 349.537 6.848ZM352.897 10.592C351.937 11.616 351.137 13.504 350.497 16.256C349.857 18.944 349.377 22.048 349.057 25.568C348.801 29.088 348.673 32.8 348.673 36.704C348.673 40.608 348.833 44.256 349.153 47.648C349.473 50.976 349.921 53.856 350.497 56.288C351.073 58.72 351.809 60.224 352.705 60.8C354.945 62.272 357.281 62.88 359.713 62.624C362.209 62.368 364.353 60.928 366.145 58.304C366.721 57.472 367.393 55.936 368.161 53.696C368.929 51.456 369.633 48.832 370.273 45.824C370.977 42.816 371.553 39.616 372.001 36.224C372.449 32.768 372.641 29.44 372.577 26.24C372.513 23.04 372.097 20.128 371.329 17.504C370.625 14.816 369.409 12.768 367.681 11.36C366.529 10.4 365.281 9.664 363.937 9.152C362.593 8.64 361.217 8.352 359.809 8.288C358.465 8.16 357.185 8.288 355.969 8.672C354.753 9.056 353.729 9.696 352.897 10.592ZM384.957 4.16C384.893 3.52 385.149 3.008 385.725 2.62399C386.365 2.24 387.037 2.016 387.741 1.952C388.509 1.888 389.213 2.048 389.853 2.432C390.493 2.752 390.813 3.328 390.813 4.16C390.813 4.736 390.749 6.08 390.621 8.192C390.557 10.304 390.429 12.8 390.237 15.68C390.109 18.496 389.981 21.504 389.853 24.704C389.725 27.904 389.597 30.88 389.469 33.632C389.405 36.32 389.373 38.592 389.373 40.448C389.373 42.24 389.437 43.168 389.565 43.232C389.757 43.36 390.109 43.456 390.621 43.52C391.197 43.52 391.837 43.52 392.541 43.52C393.245 43.456 393.981 43.392 394.749 43.328C395.517 43.264 396.253 43.2 396.957 43.136C397.597 43.072 398.077 43.296 398.397 43.808C398.717 44.32 398.877 44.896 398.877 45.536C398.941 46.176 398.877 46.784 398.685 47.36C398.493 47.936 398.237 48.224 397.917 48.224C397.533 48.224 396.893 48.224 395.997 48.224C395.165 48.16 394.301 48.128 393.405 48.128C392.509 48.128 391.677 48.192 390.909 48.32C390.205 48.448 389.789 48.704 389.661 49.088C389.533 49.344 389.437 50.016 389.373 51.104C389.309 52.192 389.277 53.408 389.277 54.752C389.341 56.032 389.437 57.28 389.565 58.496C389.757 59.712 390.013 60.544 390.333 60.992C391.037 61.952 391.933 62.496 393.021 62.624C394.173 62.688 395.293 62.688 396.381 62.624C396.957 62.624 397.373 62.88 397.629 63.392C397.885 63.904 398.013 64.48 398.013 65.12C398.013 65.76 397.821 66.368 397.437 66.944C397.117 67.52 396.637 67.808 395.997 67.808C395.293 67.808 394.493 67.808 393.597 67.808C392.701 67.808 391.773 67.712 390.813 67.52C389.917 67.264 389.021 66.816 388.125 66.176C387.293 65.536 386.589 64.608 386.013 63.392C385.437 62.176 385.085 60.768 384.957 59.168C384.829 57.568 384.765 56.032 384.765 54.56C384.829 53.088 384.893 51.808 384.957 50.72C385.021 49.632 384.957 48.992 384.765 48.8C384.573 48.608 384.221 48.48 383.709 48.416C383.197 48.288 382.589 48.224 381.885 48.224C381.245 48.224 380.573 48.256 379.869 48.32C379.165 48.32 378.493 48.32 377.853 48.32C377.213 48.32 376.765 48.128 376.509 47.744C376.253 47.296 376.125 46.816 376.125 46.304C376.125 45.792 376.253 45.312 376.509 44.864C376.765 44.352 377.117 44.032 377.565 43.904C378.013 43.776 378.589 43.744 379.293 43.808C379.997 43.808 380.701 43.808 381.405 43.808C382.109 43.808 382.717 43.776 383.229 43.712C383.805 43.648 384.157 43.424 384.285 43.04C384.349 42.784 384.413 41.728 384.477 39.872C384.605 37.952 384.669 35.616 384.669 32.864C384.733 30.112 384.797 27.168 384.861 24.032C384.925 20.832 384.957 17.824 384.957 15.008C385.021 12.192 385.021 9.792 384.957 7.808C384.957 5.824 384.957 4.608 384.957 4.16ZM403.271 5.696C403.399 5.504 403.687 5.248 404.135 4.928C404.583 4.608 405.063 4.384 405.575 4.256C406.151 4.128 406.663 4.16 407.111 4.352C407.623 4.544 407.943 4.992 408.071 5.696C408.135 6.08 408.135 7.136 408.071 8.86399C408.007 10.592 407.911 12.768 407.783 15.392C407.719 18.016 407.591 20.96 407.398 24.224C407.207 27.424 407.015 30.688 406.823 34.016C406.695 37.344 406.535 40.608 406.343 43.808C406.215 47.008 406.119 49.888 406.055 52.448C405.991 55.008 405.991 57.12 406.055 58.784C406.119 60.384 406.247 61.28 406.439 61.472C406.695 61.792 407.271 61.952 408.167 61.952C409.127 61.952 410.215 61.92 411.431 61.856C412.711 61.728 414.023 61.6 415.367 61.472C416.775 61.28 418.055 61.152 419.207 61.088C420.423 60.96 421.415 60.96 422.183 61.088C422.951 61.152 423.367 61.376 423.431 61.76C423.559 62.912 423.623 63.84 423.623 64.544C423.623 65.184 423.271 65.504 422.567 65.504C422.311 65.504 421.671 65.568 420.647 65.696C419.623 65.824 418.375 65.984 416.903 66.176C415.495 66.368 413.959 66.56 412.295 66.752C410.695 66.944 409.159 67.104 407.687 67.232C406.279 67.296 405.063 67.328 404.039 67.328C403.079 67.328 402.535 67.2 402.407 66.944C402.279 66.752 402.183 65.76 402.119 63.968C402.119 62.112 402.119 59.776 402.119 56.96C402.119 54.08 402.119 50.848 402.119 47.264C402.183 43.616 402.247 39.904 402.311 36.128C402.375 32.352 402.439 28.672 402.503 25.088C402.567 21.504 402.631 18.304 402.695 15.488C402.823 12.608 402.919 10.304 402.983 8.576C403.111 6.784 403.207 5.824 403.271 5.696Z" fill="url(#paint0_linear)"/>
</g>
<defs>
<filter id="filter0_d" x="0.883301" y="0.773926" width="423.739" height="71.8982" filterUnits="userSpaceOnUse" color-interpolation-filters="sRGB">
<feFlood flood-opacity="0" result="BackgroundImageFix"/>
<feColorMatrix in="SourceAlpha" type="matrix" values="0 0 0 0 0 0 0 0 0 0 0 0 0 0 0 0 0 0 127 0" result="hardAlpha"/>
<feOffset dx="1" dy="4"/>
<feComposite in2="hardAlpha" operator="out"/>
<feColorMatrix type="matrix" values="0 0 0 0 0 0 0 0 0 0 0 0 0 0 0 0 0 0 0.25 0"/>
<feBlend mode="normal" in2="BackgroundImageFix" result="effect1_dropShadow"/>
<feBlend mode="normal" in="SourceGraphic" in2="effect1_dropShadow" result="shape"/>
</filter>
<linearGradient id="paint0_linear" x1="-3.5059e-08" y1="25.7313" x2="426.96" y2="19.4199" gradientUnits="userSpaceOnUse">
<stop stop-color="#E7A99F"/>
<stop offset="0.604167" stop-color="#CED7C0"/>
<stop offset="1" stop-color="#799561"/>
</linearGradient>
</defs>
</svg>
